<?xml version="1.0" encoding="UTF-8" standalone="no"?>
<!-- Generated by graphviz version 2.43.20190912.0211 (20190912.0211)
 -->

<!-- Title: G Pages: 1 -->

<svg
   width="1603.2635"
   height="723.07751"
   viewBox="0 0 1202.3525 542.45536"
   version="1.1"
   id="svg363"
   sodipodi:docname="pipeline.svg"
   inkscape:version="1.2.1 (9c6d41e410, 2022-07-14)"
   xml:space="preserve"
   inkscape:export-filename="pipeline.png"
   inkscape:export-xdpi="200"
   inkscape:export-ydpi="200"
   xmlns:inkscape="http://www.inkscape.org/namespaces/inkscape"
   xmlns:sodipodi="http://sodipodi.sourceforge.net/DTD/sodipodi-0.dtd"
   xmlns:xlink="http://www.w3.org/1999/xlink"
   xmlns="http://www.w3.org/2000/svg"
   xmlns:svg="http://www.w3.org/2000/svg"
   xmlns:rdf="http://www.w3.org/1999/02/22-rdf-syntax-ns#"
   xmlns:cc="http://creativecommons.org/ns#"
   xmlns:dc="http://purl.org/dc/elements/1.1/"><metadata
     id="metadata369"><rdf:RDF><cc:Work
         rdf:about=""><dc:format>image/svg+xml</dc:format><dc:type
           rdf:resource="http://purl.org/dc/dcmitype/StillImage" /></cc:Work></rdf:RDF></metadata><defs
     id="defs367"><marker
       style="overflow:visible"
       id="TriangleStart"
       refX="0"
       refY="0"
       orient="auto-start-reverse"
       inkscape:stockid="TriangleStart"
       markerWidth="5.3244081"
       markerHeight="6.155385"
       viewBox="0 0 5.3244081 6.1553851"
       inkscape:isstock="true"
       inkscape:collect="always"
       preserveAspectRatio="xMidYMid"><path
         transform="scale(0.5)"
         style="fill:context-stroke;fill-rule:evenodd;stroke:context-stroke;stroke-width:1pt"
         d="M 5.77,0 -2.88,5 V -5 Z"
         id="path135" /></marker><marker
       style="overflow:visible"
       id="Arrow3"
       refX="0"
       refY="0"
       orient="auto-start-reverse"
       inkscape:stockid="Arrow3"
       markerWidth="4.2071066"
       markerHeight="7"
       viewBox="0 0 4.2071068 7"
       inkscape:isstock="true"
       inkscape:collect="always"
       preserveAspectRatio="xMidYMid"><path
         style="fill:none;stroke:context-stroke;stroke-width:1;stroke-linecap:round"
         d="M 3,-3 0,0 3,3"
         id="arrow3"
         transform="rotate(180,0.125,0)"
         sodipodi:nodetypes="ccc" /></marker><linearGradient
       id="gradientFill-1"
       x1="0.74144253"
       x2="590.86259"
       y1="3.6658269"
       y2="593.78698"
       gradientUnits="userSpaceOnUse"
       spreadMethod="pad"
       gradientTransform="scale(1.2219423,0.81836924)"><stop
         offset="0"
         stop-color="rgb(203,206,208)"
         stop-opacity="1"
         id="stop23560" /><stop
         offset="1"
         stop-color="rgb(132,131,139)"
         stop-opacity="1"
         id="stop23562" /></linearGradient><linearGradient
       id="gradientFill-2"
       x1="301.02603"
       x2="703.06751"
       y1="151.40061"
       y2="553.44209"
       gradientUnits="userSpaceOnUse"
       spreadMethod="pad"
       gradientTransform="scale(0.9899476,1.0101545)"><stop
         offset="0"
         stop-color="rgb(39,109,195)"
         stop-opacity="1"
         id="stop23565" /><stop
         offset="1"
         stop-color="rgb(22,92,170)"
         stop-opacity="1"
         id="stop23567" /></linearGradient><style
       id="style23683">.cls-1{fill:#616161;}.cls-2{fill:#f37726;}</style><linearGradient
       inkscape:collect="always"
       xlink:href="#gradientFill-1"
       id="linearGradient28163"
       gradientUnits="userSpaceOnUse"
       gradientTransform="scale(1.2219423,0.81836924)"
       x1="0.74144253"
       y1="3.6658269"
       x2="590.86259"
       y2="593.78698"
       spreadMethod="pad" /><linearGradient
       inkscape:collect="always"
       xlink:href="#gradientFill-2"
       id="linearGradient28165"
       gradientUnits="userSpaceOnUse"
       gradientTransform="scale(0.9899476,1.0101545)"
       x1="301.02603"
       y1="151.40061"
       x2="703.06751"
       y2="553.44209"
       spreadMethod="pad" /></defs><sodipodi:namedview
     pagecolor="#ffffff"
     bordercolor="#666666"
     borderopacity="1"
     objecttolerance="10"
     gridtolerance="10"
     guidetolerance="10"
     inkscape:pageopacity="0"
     inkscape:pageshadow="2"
     inkscape:window-width="2560"
     inkscape:window-height="1371"
     id="namedview365"
     showgrid="true"
     inkscape:zoom="0.70710678"
     inkscape:cx="861.96317"
     inkscape:cy="377.59502"
     inkscape:window-x="0"
     inkscape:window-y="32"
     inkscape:window-maximized="1"
     inkscape:current-layer="svg363"
     inkscape:snap-nodes="true"
     inkscape:snap-to-guides="false"
     fit-margin-top="10"
     fit-margin-left="10"
     fit-margin-right="10"
     fit-margin-bottom="10"
     units="px"
     inkscape:showpageshadow="2"
     inkscape:pagecheckerboard="0"
     inkscape:deskcolor="#d1d1d1"><inkscape:grid
       type="xygrid"
       id="grid1195"
       originx="-3439.9728"
       originy="-753.29968" /></sodipodi:namedview><text
     xml:space="preserve"
     style="font-style:normal;font-weight:normal;font-size:64.0174px;line-height:1.25;font-family:sans-serif;letter-spacing:0px;word-spacing:0px;fill:#000000;fill-opacity:1;stroke:none;stroke-width:0.750204"
     x="99.571213"
     y="185.45369"
     id="text7542" /><text
     xml:space="preserve"
     style="font-style:normal;font-variant:normal;font-weight:normal;font-stretch:normal;font-size:22.006px;line-height:1.25;font-family:sans-serif;-inkscape-font-specification:sans-serif;letter-spacing:0px;word-spacing:0px;fill:#000000;fill-opacity:1;stroke:none;stroke-width:0.423635"
     x="30.240089"
     y="185.87328"
     id="text7558" /><g
     id="g40788"
     transform="translate(0,20.001956)"><g
       id="g11868"
       transform="translate(-88.153862,55.614946)"><g
         transform="matrix(0.10775192,0,0,0.10775192,119.42381,39.36654)"
         id="g6498"><path
           style="fill:#d9e8fb;fill-opacity:1;stroke:#859ab9;stroke-width:15.0041;stroke-linecap:round;stroke-linejoin:round;stroke-miterlimit:4;stroke-dasharray:none;stroke-opacity:1"
           d="m 2940.2664,858.23293 v 345.09367 h 270.0733 V 940.75533 h -82.5224 v -82.5224 l 82.5224,82.5224 -82.5224,-82.5224 z"
           id="path6494"
           inkscape:connector-curvature="0" /><path
           style="opacity:1;fill:#d9e8fb;fill-opacity:1;stroke:#859ab9;stroke-width:4.75522;stroke-linecap:round;stroke-linejoin:round;stroke-miterlimit:4;stroke-dasharray:none;stroke-dashoffset:0"
           d="m 3130.1528,901.36761 v -37.48557 l 37.1882,37.17326 c 20.4535,20.44523 37.1882,37.31378 37.1882,37.48558 0,0.17172 -16.7347,0.31231 -37.1882,0.31231 h -37.1882 z"
           id="path6496"
           inkscape:connector-curvature="0" /></g><text
         id="text6502"
         y="157.17656"
         x="443.70261"
         style="font-style:normal;font-weight:normal;font-size:6.898px;line-height:1.25;font-family:sans-serif;letter-spacing:0px;word-spacing:0px;fill:#859ab9;fill-opacity:1;stroke:none;stroke-width:0.0808359"
         xml:space="preserve"><tspan
           style="fill:#859ab9;fill-opacity:1;stroke-width:0.0808359"
           y="157.17656"
           x="443.70261"
           id="tspan6500"
           sodipodi:role="line">CSV</tspan></text><text
         xml:space="preserve"
         style="font-style:normal;font-weight:normal;font-size:8.7282px;line-height:1.25;font-family:sans-serif;fill:#859ab9;fill-opacity:1;stroke:none;stroke-width:0.218205"
         x="429.08652"
         y="179.12875"
         id="text9688"><tspan
           sodipodi:role="line"
           id="tspan9686"
           style="fill:#859ab9;fill-opacity:1;stroke-width:0.218205"
           x="429.08652"
           y="179.12875">Parameters</tspan></text></g><g
       id="g12740"
       transform="translate(-250.23403,-0.92427647)"><g
         transform="matrix(0.10775192,0,0,0.10775192,113.57207,16.26844)"
         id="g7084"><g
           id="g7070"
           transform="translate(105.02508,75.020376)"><path
             inkscape:connector-curvature="0"
             id="path7066"
             d="M 4785.7707,858.23293 V 1203.3266 H 5055.844 V 940.75533 h -82.5224 v -82.5224 l 82.5224,82.5224 -82.5224,-82.5224 z"
             style="fill:#e2d5e7;fill-opacity:1;stroke:#8a7597;stroke-width:15.0041;stroke-linecap:round;stroke-linejoin:round;stroke-miterlimit:4;stroke-dasharray:none;stroke-opacity:1" /><path
             inkscape:connector-curvature="0"
             id="path7068"
             d="m 4975.6571,901.36761 v -37.48557 l 37.1882,37.17326 c 20.4535,20.44523 37.1882,37.31378 37.1882,37.48558 0,0.17172 -16.7347,0.31231 -37.1882,0.31231 h -37.1882 z"
             style="opacity:1;fill:#e2d5e7;fill-opacity:1;stroke:#8a7597;stroke-width:4.75522;stroke-linecap:round;stroke-linejoin:round;stroke-miterlimit:4;stroke-dasharray:none;stroke-dashoffset:0" /></g><g
           transform="translate(60.012859,120.03259)"
           id="g7076"><path
             style="fill:#e2d5e7;fill-opacity:1;stroke:#8a7597;stroke-width:15.0041;stroke-linecap:round;stroke-linejoin:round;stroke-miterlimit:4;stroke-dasharray:none;stroke-opacity:1"
             d="M 4785.7707,858.23293 V 1203.3266 H 5055.844 V 940.75533 h -82.5224 v -82.5224 l 82.5224,82.5224 -82.5224,-82.5224 z"
             id="path7072"
             inkscape:connector-curvature="0" /><path
             style="opacity:1;fill:#e2d5e7;fill-opacity:1;stroke:#8a7597;stroke-width:4.75522;stroke-linecap:round;stroke-linejoin:round;stroke-miterlimit:4;stroke-dasharray:none;stroke-dashoffset:0"
             d="m 4975.6571,901.36761 v -37.48557 l 37.1882,37.17326 c 20.4535,20.44523 37.1882,37.31378 37.1882,37.48558 0,0.17172 -16.7347,0.31231 -37.1882,0.31231 h -37.1882 z"
             id="path7074"
             inkscape:connector-curvature="0" /></g><g
           id="g7082"
           transform="translate(15.000643,165.0448)"><path
             inkscape:connector-curvature="0"
             id="path7078"
             d="M 4785.7707,858.23293 V 1203.3266 H 5055.844 V 940.75533 h -82.5224 v -82.5224 l 82.5224,82.5224 -82.5224,-82.5224 z"
             style="fill:#e2d5e7;fill-opacity:1;stroke:#8a7597;stroke-width:15.0041;stroke-linecap:round;stroke-linejoin:round;stroke-miterlimit:4;stroke-dasharray:none;stroke-opacity:1" /><path
             inkscape:connector-curvature="0"
             id="path7080"
             d="m 4975.6571,901.36761 v -37.48557 l 37.1882,37.17326 c 20.4535,20.44523 37.1882,37.31378 37.1882,37.48558 0,0.17172 -16.7347,0.31231 -37.1882,0.31231 h -37.1882 z"
             style="opacity:1;fill:#e2d5e7;fill-opacity:1;stroke:#8a7597;stroke-width:4.75522;stroke-linecap:round;stroke-linejoin:round;stroke-miterlimit:4;stroke-dasharray:none;stroke-dashoffset:0" /></g></g><text
         id="text7088"
         y="146.87416"
         x="644.81067"
         style="font-style:normal;font-weight:normal;font-size:6.898px;line-height:1.25;font-family:sans-serif;text-align:center;letter-spacing:0px;word-spacing:0px;text-anchor:middle;fill:#8a7597;fill-opacity:1;stroke:none;stroke-width:0.0808359"
         xml:space="preserve"><tspan
           style="text-align:center;text-anchor:middle;fill:#8a7597;fill-opacity:1;stroke-width:0.0808359"
           y="146.87416"
           x="644.81067"
           id="tspan7086"
           sodipodi:role="line">MTX</tspan><tspan
           style="text-align:center;text-anchor:middle;fill:#8a7597;fill-opacity:1;stroke-width:0.0808359"
           y="155.49666"
           x="644.81067"
           sodipodi:role="line"
           id="tspan11884">TSV x2</tspan></text><text
         xml:space="preserve"
         style="font-style:normal;font-weight:normal;font-size:8.7282px;line-height:1.25;font-family:sans-serif;text-align:center;text-anchor:middle;fill:#8a7597;fill-opacity:1;stroke:none;stroke-width:0.218205"
         x="649.50842"
         y="174.34387"
         id="text9692"><tspan
           sodipodi:role="line"
           id="tspan9690"
           style="text-align:center;text-anchor:middle;fill:#8a7597;fill-opacity:1;stroke-width:0.218205"
           x="649.50842"
           y="174.34387">Counts matrix</tspan><tspan
           sodipodi:role="line"
           style="text-align:center;text-anchor:middle;fill:#8a7597;fill-opacity:1;stroke-width:0.218205"
           x="649.50842"
           y="185.25412"
           id="tspan9694">(10X format)</tspan></text></g><g
       id="g12808"
       transform="translate(-280.2965,75.237549)"><text
         xml:space="preserve"
         style="font-style:normal;font-weight:normal;font-size:8.7282px;line-height:1.25;font-family:sans-serif;text-align:center;text-anchor:middle;fill:#8a7597;fill-opacity:1;stroke:none;stroke-width:0.218205"
         x="716.28589"
         y="170.12146"
         id="text9698"><tspan
           sodipodi:role="line"
           id="tspan9696"
           style="text-align:center;text-anchor:middle;fill:#8a7597;fill-opacity:1;stroke-width:0.218205"
           x="716.28589"
           y="170.12146">Cell types</tspan><tspan
           sodipodi:role="line"
           style="text-align:center;text-anchor:middle;fill:#8a7597;fill-opacity:1;stroke-width:0.218205"
           x="716.28589"
           y="181.03171"
           id="tspan9700">reference</tspan></text><g
         transform="matrix(0.10775192,0,0,0.10775192,182.32915,10.569493)"
         id="g12760"><g
           id="g12746"
           transform="translate(105.02508,75.020376)"><path
             inkscape:connector-curvature="0"
             id="path12742"
             d="M 4785.7707,858.23293 V 1203.3266 H 5055.844 V 940.75533 h -82.5224 v -82.5224 l 82.5224,82.5224 -82.5224,-82.5224 z"
             style="fill:#e2d5e7;fill-opacity:1;stroke:#8a7597;stroke-width:15.0041;stroke-linecap:round;stroke-linejoin:round;stroke-miterlimit:4;stroke-dasharray:none;stroke-opacity:1" /><path
             inkscape:connector-curvature="0"
             id="path12744"
             d="m 4975.6571,901.36761 v -37.48557 l 37.1882,37.17326 c 20.4535,20.44523 37.1882,37.31378 37.1882,37.48558 0,0.17172 -16.7347,0.31231 -37.1882,0.31231 h -37.1882 z"
             style="opacity:1;fill:#e2d5e7;fill-opacity:1;stroke:#8a7597;stroke-width:4.75522;stroke-linecap:round;stroke-linejoin:round;stroke-miterlimit:4;stroke-dasharray:none;stroke-dashoffset:0" /></g><g
           transform="translate(60.012859,120.03259)"
           id="g12752"><path
             style="fill:#e2d5e7;fill-opacity:1;stroke:#8a7597;stroke-width:15.0041;stroke-linecap:round;stroke-linejoin:round;stroke-miterlimit:4;stroke-dasharray:none;stroke-opacity:1"
             d="M 4785.7707,858.23293 V 1203.3266 H 5055.844 V 940.75533 h -82.5224 v -82.5224 l 82.5224,82.5224 -82.5224,-82.5224 z"
             id="path12748"
             inkscape:connector-curvature="0" /><path
             style="opacity:1;fill:#e2d5e7;fill-opacity:1;stroke:#8a7597;stroke-width:4.75522;stroke-linecap:round;stroke-linejoin:round;stroke-miterlimit:4;stroke-dasharray:none;stroke-dashoffset:0"
             d="m 4975.6571,901.36761 v -37.48557 l 37.1882,37.17326 c 20.4535,20.44523 37.1882,37.31378 37.1882,37.48558 0,0.17172 -16.7347,0.31231 -37.1882,0.31231 h -37.1882 z"
             id="path12750"
             inkscape:connector-curvature="0" /></g><g
           id="g12758"
           transform="translate(15.000643,165.0448)"><path
             inkscape:connector-curvature="0"
             id="path12754"
             d="M 4785.7707,858.23293 V 1203.3266 H 5055.844 V 940.75533 h -82.5224 v -82.5224 l 82.5224,82.5224 -82.5224,-82.5224 z"
             style="fill:#e2d5e7;fill-opacity:1;stroke:#8a7597;stroke-width:15.0041;stroke-linecap:round;stroke-linejoin:round;stroke-miterlimit:4;stroke-dasharray:none;stroke-opacity:1" /><path
             inkscape:connector-curvature="0"
             id="path12756"
             d="m 4975.6571,901.36761 v -37.48557 l 37.1882,37.17326 c 20.4535,20.44523 37.1882,37.31378 37.1882,37.48558 0,0.17172 -16.7347,0.31231 -37.1882,0.31231 h -37.1882 z"
             style="opacity:1;fill:#e2d5e7;fill-opacity:1;stroke:#8a7597;stroke-width:4.75522;stroke-linecap:round;stroke-linejoin:round;stroke-miterlimit:4;stroke-dasharray:none;stroke-dashoffset:0" /></g></g><text
         id="text12766"
         y="141.17522"
         x="713.56775"
         style="font-style:normal;font-weight:normal;font-size:6.898px;line-height:1.25;font-family:sans-serif;text-align:center;letter-spacing:0px;word-spacing:0px;text-anchor:middle;fill:#8a7597;fill-opacity:1;stroke:none;stroke-width:0.0808359"
         xml:space="preserve"><tspan
           style="text-align:center;text-anchor:middle;fill:#8a7597;fill-opacity:1;stroke-width:0.0808359"
           y="141.17522"
           x="713.56775"
           id="tspan12762"
           sodipodi:role="line">MTX</tspan><tspan
           style="text-align:center;text-anchor:middle;fill:#8a7597;fill-opacity:1;stroke-width:0.0808359"
           y="149.79771"
           x="713.56775"
           sodipodi:role="line"
           id="tspan12764">TSV x3</tspan></text></g></g><g
     id="g40832"
     transform="matrix(1.2982241,0,0,1.2982241,-304.61509,-30.246677)"><g
       id="g28984"
       transform="translate(-81.391375,-0.92943095)"><g
         id="g15151"
         transform="translate(488.99657,-41.6483)"><g
           id="g14744"
           transform="matrix(0.10775192,0,0,0.10775192,118.62544,123.68158)"
           style="fill:#b7c8be;fill-opacity:1;stroke:#536c5d"><path
             inkscape:connector-curvature="0"
             id="path14740"
             d="M 4785.7707,858.23293 V 1203.3266 H 5055.844 V 940.75533 h -82.5224 v -82.5224 l 82.5224,82.5224 -82.5224,-82.5224 z"
             style="fill:#b7c8be;fill-opacity:1;stroke:#536c5d;stroke-width:15.0041;stroke-linecap:round;stroke-linejoin:round;stroke-miterlimit:4;stroke-dasharray:none;stroke-opacity:1" /><path
             inkscape:connector-curvature="0"
             id="path14742"
             d="m 4975.6571,901.36761 v -37.48557 l 37.1882,37.17326 c 20.4535,20.44523 37.1882,37.31378 37.1882,37.48558 0,0.17172 -16.7347,0.31231 -37.1882,0.31231 h -37.1882 z"
             style="opacity:1;fill:#b7c8be;fill-opacity:1;stroke:#536c5d;stroke-width:4.75522;stroke-linecap:round;stroke-linejoin:round;stroke-miterlimit:4;stroke-dasharray:none;stroke-dashoffset:0" /></g><g
           transform="matrix(0.10775192,0,0,0.10775192,113.77529,128.53173)"
           id="g14750"
           style="fill:#b7c8be;fill-opacity:1;stroke:#536c5d"><path
             style="fill:#b7c8be;fill-opacity:1;stroke:#536c5d;stroke-width:15.0041;stroke-linecap:round;stroke-linejoin:round;stroke-miterlimit:4;stroke-dasharray:none;stroke-opacity:1"
             d="M 4785.7707,858.23293 V 1203.3266 H 5055.844 V 940.75533 h -82.5224 v -82.5224 l 82.5224,82.5224 -82.5224,-82.5224 z"
             id="path14746"
             inkscape:connector-curvature="0" /><path
             style="opacity:1;fill:#b7c8be;fill-opacity:1;stroke:#536c5d;stroke-width:4.75522;stroke-linecap:round;stroke-linejoin:round;stroke-miterlimit:4;stroke-dasharray:none;stroke-dashoffset:0"
             d="m 4975.6571,901.36761 v -37.48557 l 37.1882,37.17326 c 20.4535,20.44523 37.1882,37.31378 37.1882,37.48558 0,0.17172 -16.7347,0.31231 -37.1882,0.31231 h -37.1882 z"
             id="path14748"
             inkscape:connector-curvature="0" /></g><g
           id="g14756"
           transform="matrix(0.10775192,0,0,0.10775192,108.92514,133.38188)"
           style="fill:#b7c8be;fill-opacity:1;stroke:#536c5d"><path
             inkscape:connector-curvature="0"
             id="path14752"
             d="M 4785.7707,858.23293 V 1203.3266 H 5055.844 V 940.75533 h -82.5224 v -82.5224 l 82.5224,82.5224 -82.5224,-82.5224 z"
             style="fill:#b7c8be;fill-opacity:1;stroke:#536c5d;stroke-width:15.0041;stroke-linecap:round;stroke-linejoin:round;stroke-miterlimit:4;stroke-dasharray:none;stroke-opacity:1" /><path
             inkscape:connector-curvature="0"
             id="path14754"
             d="m 4975.6571,901.36761 v -37.48557 l 37.1882,37.17326 c 20.4535,20.44523 37.1882,37.31378 37.1882,37.48558 0,0.17172 -16.7347,0.31231 -37.1882,0.31231 h -37.1882 z"
             style="opacity:1;fill:#b7c8be;fill-opacity:1;stroke:#536c5d;stroke-width:4.75522;stroke-linecap:round;stroke-linejoin:round;stroke-miterlimit:4;stroke-dasharray:none;stroke-dashoffset:0" /></g><text
           id="text14764"
           y="249.20454"
           x="638.54736"
           style="font-style:normal;font-weight:normal;font-size:6.898px;line-height:1.25;font-family:sans-serif;text-align:center;letter-spacing:0px;word-spacing:0px;text-anchor:middle;fill:#536c5d;fill-opacity:1;stroke:none;stroke-width:0.0808359"
           xml:space="preserve"><tspan
             style="text-align:center;text-anchor:middle;fill:#536c5d;fill-opacity:1;stroke-width:0.0808359"
             y="249.20454"
             x="638.54736"
             sodipodi:role="line"
             id="tspan14762">HTML</tspan></text></g><g
         id="g23705"
         transform="matrix(0.24028314,0,0,0.24028314,1077.6659,134.74513)"><path
           class="cls-1"
           d="m 281.94,79.3 a 14.43,14.43 0 0 1 -6.71,-1.47 12.62,12.62 0 0 1 -4.73,-4.36 l -0.66,5.07 h -6.2 V 27.32 l -5.94,-1 v -4.64 h 13.13 v 22.08 a 12.27,12.27 0 0 1 4.61,-4 14,14 0 0 1 6.42,-1.39 13.29,13.29 0 0 1 8.33,2.63 16.56,16.56 0 0 1 5.29,7.42 30.78,30.78 0 0 1 1.85,11.12 v 0.75 a 25,25 0 0 1 -1.85,10 15.19,15.19 0 0 1 -5.29,6.65 14.08,14.08 0 0 1 -8.25,2.36 z m -1.83,-5.83 q 5.07,0 7.53,-3.6 2.46,-3.6 2.47,-9.57 v -0.75 a 26.4,26.4 0 0 0 -1.1,-8 11.71,11.71 0 0 0 -3.32,-5.4 8.2,8.2 0 0 0 -5.65,-2 9.48,9.48 0 0 0 -5.59,1.61 11.39,11.39 0 0 0 -3.62,4.3 v 17.46 a 11.22,11.22 0 0 0 3.65,4.35 9.63,9.63 0 0 0 5.63,1.6 z M 322,79.3 a 16.31,16.31 0 0 1 -15.53,-9.67 24,24 0 0 1 -2.14,-10.37 v -0.8 a 24,24 0 0 1 2.14,-10.38 17,17 0 0 1 6.1,-7.08 17,17 0 0 1 24.87,7.11 23.79,23.79 0 0 1 2.16,10.39 v 0.8 A 24,24 0 0 1 337.44,69.7 16.15,16.15 0 0 1 322,79.3 Z m 0,-5.61 a 8.83,8.83 0 0 0 5.75,-1.87 11.64,11.64 0 0 0 3.5,-5.14 21.67,21.67 0 0 0 1.19,-7.42 v -0.8 a 21.63,21.63 0 0 0 -1.2,-7.46 11.36,11.36 0 0 0 -3.53,-5.14 9.81,9.81 0 0 0 -11.55,0 11.31,11.31 0 0 0 -3.5,5.14 22.15,22.15 0 0 0 -1.15,7.42 v 0.8 a 22.19,22.19 0 0 0 1.15,7.42 11.43,11.43 0 0 0 3.52,5.14 9,9 0 0 0 5.82,1.91 z m 42.25,5.61 a 16.31,16.31 0 0 1 -15.53,-9.67 24,24 0 0 1 -2.14,-10.37 v -0.8 a 24,24 0 0 1 2.14,-10.38 17,17 0 0 1 6.1,-7.08 17,17 0 0 1 24.87,7.11 23.79,23.79 0 0 1 2.16,10.39 v 0.8 a 24,24 0 0 1 -2.16,10.4 16.15,16.15 0 0 1 -15.45,9.64 z m 0,-5.61 a 8.83,8.83 0 0 0 5.75,-1.87 11.64,11.64 0 0 0 3.5,-5.14 21.67,21.67 0 0 0 1.19,-7.42 v -0.8 A 21.63,21.63 0 0 0 373.49,51 11.36,11.36 0 0 0 370,45.9 a 9.81,9.81 0 0 0 -11.55,0 11.31,11.31 0 0 0 -3.5,5.14 22.15,22.15 0 0 0 -1.15,7.42 v 0.8 a 22.19,22.19 0 0 0 1.15,7.42 11.43,11.43 0 0 0 3.52,5.14 9,9 0 0 0 5.77,1.87 z m 22.06,4.85 v -4.6 l 5.95,-1 V 27.32 l -5.95,-1 v -4.64 h 13.12 v 51.25 l 5.94,1 v 4.6 z m 25.34,0 v -4.6 l 4,-0.47 -0.11,-0.15 -11.41,-14.72 3.71,-5.72 15.94,20.19 5.69,0.87 v 4.6 z m -12.73,-11.41 -2.67,-5.66 17.14,-17.06 0.17,-0.22 -4.22,-0.47 V 39.1 h 17 v 4.62 l -5.06,1 z"
           id="path23689" /><path
           class="cls-2"
           d="m 255.8,104.69 q -10.41,-2.94 -14.82,-9.35 a 26.7,26.7 0 0 1 -4.4,-15.48 V 68.92 q 0,-6 -2.74,-9.31 -2.74,-3.31 -8.37,-3.34 v -7.85 q 5.66,0 8.37,-3.28 2.71,-3.28 2.74,-9.33 v -11 A 26.67,26.67 0 0 1 241,9.31 Q 245.39,2.93 255.8,0 l 2.12,6.25 a 13.4,13.4 0 0 0 -8.34,6.7 25.71,25.71 0 0 0 -2.49,11.88 v 11 a 20.94,20.94 0 0 1 -2.25,9.89 15.59,15.59 0 0 1 -6.76,6.66 16,16 0 0 1 6.76,6.77 20.78,20.78 0 0 1 2.25,9.79 v 10.92 a 25.3,25.3 0 0 0 2.49,11.81 13.71,13.71 0 0 0 8.34,6.71 z"
           id="path23691" /><path
           class="cls-2"
           d="m 430.26,104.67 -2.14,-6.31 a 13.72,13.72 0 0 0 8.26,-6.7 25.07,25.07 0 0 0 2.52,-11.81 V 68.91 a 20.07,20.07 0 0 1 2.4,-10 15.7,15.7 0 0 1 7.43,-6.57 15.15,15.15 0 0 1 -7.43,-6.46 20.25,20.25 0 0 1 -2.4,-10.09 v -11 a 25.44,25.44 0 0 0 -2.52,-11.87 13.45,13.45 0 0 0 -8.26,-6.7 L 430.26,0 Q 440.61,2.92 445,9.3 a 26.66,26.66 0 0 1 4.4,15.51 v 11 q 0,6 2.72,9.33 c 1.83,2.18 4.64,3.28 8.44,3.28 v 7.84 q -5.7,0 -8.44,3.35 -2.74,3.35 -2.72,9.31 V 79.85 A 26.7,26.7 0 0 1 445,95.33 q -4.38,6.4 -14.74,9.34 z"
           id="path23693" /><path
           class="cls-1"
           d="m 11.28,40.9 v 41.67 c 0,3.36 -0.65,5.9 -2,7.61 -1.35,1.71 -3.28,2.56 -6.09,2.56 -0.52,0 -1,0 -1.56,0 L 0,92.6 v -3.8 h 0.94 0.92 c 2,0 3.29,-0.4 3.89,-1.31 a 7,7 0 0 0 0.91,-3.9 V 40.9 Z m 13.43,0 V 65.57 A 11.82,11.82 0 0 0 27,73.13 c 1.43,1.87 4,2.81 7.77,2.81 A 9.73,9.73 0 0 0 43.15,71.69 17.84,17.84 0 0 0 46.2,61.05 V 40.9 h 4.6 v 37.84 h -4.25 v -6.8 h -0.14 a 13.73,13.73 0 0 1 -5.26,5.82 14.77,14.77 0 0 1 -7.81,2.09 q -6.81,0 -10,-3.61 -3.19,-3.61 -3.25,-10.47 V 40.9 Z m 52.75,-1.08 q 7.94,0 12.46,5.56 4.52,5.56 4.54,14.45 0,8.85 -4.55,14.44 -4.55,5.59 -12.42,5.58 a 15.38,15.38 0 0 1 -8.16,-2.22 11.57,11.57 0 0 1 -5,-6.09 h -0.15 v 21.2 H 59.55 V 40.9 h 4.26 v 7.18 H 64 A 12.58,12.58 0 0 1 69.24,42 15.8,15.8 0 0 1 77.46,39.82 Z m -13.3,20 q 0,7.19 3.45,11.67 3.45,4.48 9.85,4.47 a 10.53,10.53 0 0 0 9.07,-4.59 19.27,19.27 0 0 0 3.3,-11.52 19.26,19.26 0 0 0 -3.3,-11.53 10.63,10.63 0 0 0 -9.18,-4.61 q -6.41,0 -9.8,4.05 -3.39,4.05 -3.39,12.04 z M 102.3,40.9 114.76,73.11 126.44,40.9 h 4.61 l -16.29,43.25 a 19.6,19.6 0 0 1 -3.57,6.5 c -1.3,1.39 -3.42,2.09 -6.38,2.09 l -1.64,-0.08 a 6.87,6.87 0 0 1 -2,-0.28 v -3.91 h 0.06 a 5.64,5.64 0 0 0 1.28,0.25 12.83,12.83 0 0 0 1.8,0.14 5.4,5.4 0 0 0 4.36,-1.75 c 1,-1.16 2.27,-4 3.84,-8.51 L 97.39,40.9 Z M 142.94,29.54 V 40.9 h 7.69 v 3.9 h -7.69 v 25.81 c 0,1.93 0.36,3.2 1.08,3.8 a 4.28,4.28 0 0 0 2.81,0.89 c 0.48,0 1,0 1.71,0 0.71,0 1.35,-0.1 2.09,-0.18 V 79 c -0.67,0 -1.34,0.09 -2,0.11 -0.66,0.02 -1.36,0 -2.06,0 q -4.62,0 -6.44,-1.75 c -1.19,-1.17 -1.79,-3.26 -1.79,-6.3 V 44.8 h -6.63 v -3.9 h 6.63 V 29.54 Z m 28.49,10.28 a 14.74,14.74 0 0 1 12.17,5.59 q 4.49,5.58 4.49,14.89 v 0.75 H 159 a 16.8,16.8 0 0 0 3.53,10.75 11,11 0 0 0 8.92,4.14 11.79,11.79 0 0 0 7.55,-2.37 13.62,13.62 0 0 0 4.3,-7.28 h 4.7 q -1.62,6.83 -5.66,10.2 -4.04,3.37 -10.86,3.36 -8,0 -12.55,-5.36 -4.55,-5.36 -4.53,-14.66 0,-8.8 4.55,-14.4 4.55,-5.6 12.48,-5.61 z m 12,17.37 A 15,15 0 0 0 179.9,47.63 11.22,11.22 0 0 0 163.07,47.35 17.33,17.33 0 0 0 159,57.19 Z M 211.83,40.4 H 213 V 45 h -0.54 a 12.91,12.91 0 0 0 -9.84,3.92 13.65,13.65 0 0 0 -3.7,9.76 v 20 h -4.61 V 40.9 h 4.26 v 8.87 h 0.14 a 14.74,14.74 0 0 1 5.21,-6.91 13.46,13.46 0 0 1 7.94,-2.46 z"
           id="path23695" /></g></g></g><g
     id="g40732"
     transform="translate(-22.346235)"><g
       id="g36632"><g
         id="g34291"
         transform="translate(-154.01711,-57.101757)"><g
           transform="matrix(0.18096092,0,0,0.18096092,289.14979,52.423936)"
           id="g34244"
           style="fill:#e9ddaf;stroke:#a0892c"><path
             style="fill:#e9ddaf;fill-opacity:1;stroke:#a0892c;stroke-width:15.0041;stroke-linecap:round;stroke-linejoin:round;stroke-miterlimit:4;stroke-dasharray:none;stroke-opacity:1"
             d="m 2940.2664,858.23293 v 345.09367 h 270.0733 V 940.75533 h -82.5224 v -82.5224 l 82.5224,82.5224 -82.5224,-82.5224 z"
             id="path34240"
             inkscape:connector-curvature="0" /><path
             style="opacity:1;fill:#e9ddaf;fill-opacity:1;stroke:#a0892c;stroke-width:4.75522;stroke-linecap:round;stroke-linejoin:round;stroke-miterlimit:4;stroke-dasharray:none;stroke-dashoffset:0"
             d="m 3130.1528,901.36761 v -37.48557 l 37.1882,37.17326 c 20.4535,20.44523 37.1882,37.31378 37.1882,37.48558 0,0.17172 -16.7347,0.31231 -37.1882,0.31231 h -37.1882 z"
             id="path34242"
             inkscape:connector-curvature="0" /></g><g
           id="g34260"
           transform="matrix(0.11655457,0,0,0.11655457,830.35162,229.38691)"><g
             id="g34258"><path
               d="m 10.583831,156.40966 v -0.21301 -32.53902 h 7.136222 v 35.25503 c 0.331568,2.84127 0.08751,5.72022 -0.71769,8.46512 -0.805143,2.74491 -2.154924,5.29947 -3.968768,7.51146 -3.3711325,2.90785 -7.6906105,4.48033 -12.14221328,4.42015 L 0.14580504,173.9839 c 2.87138126,0.002 5.64149746,-1.06092 7.77525176,-2.98232 1.9172092,-2.23669 2.6627742,-5.27225 2.6627742,-14.59192 z m 53.219945,-4.20063 c 0,3.99414 0,7.56225 0.319485,10.65104 h -6.33736 l -0.42602,-6.33736 c -1.325554,2.24232 -3.221229,4.09361 -5.494232,5.36575 -2.273064,1.27213 -4.842403,1.91978 -7.446854,1.87695 -6.177588,0 -13.52682,-3.35504 -13.52682,-17.0417 v -22.73999 h 7.136222 v 21.3021 c 0,7.40253 2.289992,12.35524 8.733886,12.35524 1.325735,0.0143 2.640941,-0.23634 3.868574,-0.73713 1.227634,-0.50079 2.342871,-1.24163 3.280389,-2.17915 0.93746,-0.93746 1.678359,-2.05276 2.17915,-3.28033 0.500732,-1.22764 0.751367,-2.5429 0.737131,-3.86864 v -23.85837 h 7.136162 v 28.27858 z m 13.526986,-15.55522 c 0,-4.95277 0,-9.00016 -0.319532,-12.67478 h 6.390658 l 0.319485,6.6569 c 1.423834,-2.40505 3.473599,-4.37867 5.93078,-5.71045 2.457241,-1.33177 5.22978,-1.97178 8.022119,-1.85178 9.479448,0 16.615678,7.93501 16.615678,19.75769 0,13.9529 -8.57412,20.87611 -17.84056,20.87611 -2.371702,0.10582 -4.730604,-0.40227 -6.84844,-1.47515 -2.117837,-1.07295 -3.922889,-2.67432 -5.240488,-4.6492 v 21.30208 h -7.0297 v -42.07165 z m 7.0297,10.38478 c 0.01932,0.96629 0.126275,1.92882 0.319545,2.87579 0.604216,2.36464 1.979718,4.46029 3.908772,5.9553 1.929112,1.49508 4.301652,2.30417 6.742264,2.29927 7.509007,0 11.929217,-6.12435 11.929217,-15.01801 0,-7.77525 -4.15391,-14.43218 -11.66291,-14.43218 -2.971611,0.24334 -5.752405,1.56221 -7.821072,3.7093 -2.068667,2.14709 -3.283141,4.97502 -3.415816,7.95363 z m 42.644038,-23.095 8.57412,22.95306 c 0.90533,2.55624 1.86391,5.64503 2.503,7.93502 0.74556,-2.34323 1.54436,-5.32555 2.503,-8.0948 l 7.77525,-22.79328 h 7.50901 l -10.65104,27.69275 c -5.32555,13.31381 -8.57411,20.18379 -13.47364,24.33769 -2.46777,2.25404 -5.47641,3.83173 -8.73385,4.57992 l -1.75742,-5.96457 c 2.27765,-0.74838 4.39216,-1.92308 6.23089,-3.46158 2.59805,-2.1173 4.65984,-4.8177 6.01781,-7.88179 0.29066,-0.53064 0.48877,-1.10698 0.5858,-1.7042 -0.0605,-0.64268 -0.22228,-1.27172 -0.47926,-1.86391 l -14.48545,-35.84082 h 7.77525 z m 47.80904,-11.17274 v 11.18359 h 10.22502 v 5.32555 h -10.22502 v 20.98258 c 0,4.793 1.38466,7.56225 5.32555,7.56225 1.39967,0.0229 2.79623,-0.13824 4.1539,-0.47926 l 0.31955,5.32549 c -2.03583,0.7053 -4.18405,1.03023 -6.33742,0.95863 -1.42605,0.0892 -2.85455,-0.13106 -4.18746,-0.64585 -1.33292,-0.51479 -2.53866,-1.31185 -3.53456,-2.33647 -2.16922,-2.90138 -3.15874,-6.51687 -2.76925,-10.11848 v -21.30213 h -6.07111 v -5.32555 h 6.17759 v -9.47944 z m 23.37086,31.87666 c -0.14452,1.80613 0.1048,3.62207 0.73079,5.32238 0.62599,1.70031 1.61369,3.24438 2.89492,4.52555 1.28117,1.28123 2.82524,2.26893 4.52555,2.89492 1.70031,0.62599 3.51625,0.87531 5.32238,0.73079 3.65311,0.0817 7.28242,-0.60786 10.65104,-2.02374 l 1.22488,5.32555 c -4.13369,1.70276 -8.5786,2.51921 -13.04756,2.39646 -2.60529,0.17838 -5.2183,-0.20888 -7.65981,-1.13527 -2.44157,-0.92634 -4.6538,-2.36985 -6.4851,-4.23143 -1.83127,-1.86164 -3.23821,-4.09738 -4.12429,-6.55378 -0.8861,-2.45646 -1.23037,-5.07545 -1.00922,-7.67745 0,-11.71614 6.97642,-20.98258 18.37308,-20.98258 12.78125,0 15.97658,11.18358 15.97658,18.31981 0.0683,1.09956 0.0683,2.2023 0,3.30186 h -27.53295 z m 20.87611,-5.32549 c 0.20553,-1.42383 0.10348,-2.87512 -0.29933,-4.25613 -0.40275,-1.381 -1.09687,-2.65966 -2.03552,-3.74978 -0.93872,-1.09005 -2.10014,-1.96625 -3.40607,-2.56955 -1.30593,-0.60328 -2.72606,-0.91962 -4.16455,-0.9277 -2.92609,0.2118 -5.66753,1.50874 -7.68708,3.63669 -2.01956,2.12789 -3.17158,4.93332 -3.23026,7.86647 z m 17.32486,-3.26854 c 0,-4.57993 0,-8.52084 -0.31954,-12.1422 h 6.39066 v 7.61551 h 0.31949 c 0.67079,-2.35047 2.0567,-4.43376 3.96535,-5.96069 1.90866,-1.52694 4.24537,-2.42173 6.68574,-2.56016 0.67169,-0.0882 1.352,-0.0882 2.02369,0 v 6.65694 c -0.81388,-0.0943 -1.63589,-0.0943 -2.44977,0 -2.41746,0.0936 -4.71822,1.06409 -6.47249,2.73019 -1.75426,1.66603 -2.84204,3.91367 -3.0602,6.32318 -0.19913,1.0897 -0.30602,2.19422 -0.31948,3.3018 v 20.71634 h -7.02973 v -26.62768 z"
               fill="#4e4e4e"
               id="path34246" /><path
               d="m 233.25794,16.962136 c 0.2187,3.577741 -0.63251,7.139571 -2.44527,10.231775 -1.81277,3.092263 -4.50492,5.574867 -7.73362,7.131676 -3.22871,1.556749 -6.84773,2.117178 -10.39604,1.609927 -3.54831,-0.507312 -6.86531,-2.059336 -9.52845,-4.458434 -2.66314,-2.399039 -4.55186,-5.536584 -5.42555,-9.012875 -0.87369,-3.476292 -0.6928,-7.134009 0.51961,-10.507115 1.21242,-3.3731062 3.40149,-6.3090006 6.28833,-8.4336207 2.88685,-2.1246202 6.34083,-3.34181204 9.92186,-3.49651893 2.3479,-0.1291975 4.69819,0.20702204 6.91562,0.98932423 2.21749,0.7822986 4.25846,1.995253 6.00555,3.569098 1.74703,1.573851 3.16578,3.4775414 4.17454,5.6015994 1.00876,2.124058 1.58768,4.426611 1.70342,6.775164 z"
               fill="#767677"
               id="path34248" /><path
               d="m 127.95297,225.54098 c -47.929333,0 -90.054517,-17.20146 -111.835905,-42.60426 8.451248,22.85272 23.700571,42.56789 43.695392,56.49184 19.994641,13.92407 43.775663,21.38809 68.140513,21.38809 24.36544,0 48.14587,-7.46402 68.14105,-21.38809 19.99458,-13.92395 35.24384,-33.63912 43.69545,-56.49184 -21.72809,25.4028 -63.69362,42.60426 -111.8365,42.60426 z"
               fill="#f37726"
               id="path34250" /><path
               d="m 127.95297,60.354313 c 47.92993,0 90.05517,17.201466 111.8365,42.604087 C 231.33786,80.105856 216.0886,60.390682 196.09402,46.466735 176.09884,32.542787 152.31841,25.078467 127.95297,25.078467 c -24.36485,0 -48.145872,7.46432 -68.140513,21.388268 C 39.817636,60.390682 24.568313,80.105856 16.117065,102.9584 37.898453,77.502541 79.810687,60.354313 127.95297,60.354313 Z"
               fill="#f37726"
               id="path34252" /><path
               d="m 61.971687,274.9752 c 0.281142,4.50641 -0.785642,8.99451 -3.064388,12.89246 -2.278805,3.89794 -5.666387,7.02927 -9.731163,8.99505 -4.064775,1.96578 -8.622745,2.67701 -13.093143,2.04306 -4.470457,-0.634 -8.650979,-2.58441 -12.008951,-5.6028 -3.357978,-3.01839 -5.741375,-6.96814 -6.846544,-11.34593 -1.105164,-4.37786 -0.882062,-8.98554 0.640884,-13.23617 1.522946,-4.25057 4.276786,-7.95154 7.910637,-10.63139 3.63391,-2.67986 7.983297,-4.21728 12.494071,-4.41637 2.954922,-0.15806 5.912058,0.26763 8.702482,1.25274 2.790364,0.98511 5.359344,2.51034 7.560088,4.48855 2.200744,1.97823 3.990243,4.37063 5.266089,7.04064 1.275907,2.66996 2.013276,5.56518 2.169938,8.52016 z"
               fill="#9e9e9e"
               id="path34254" /><path
               d="m 21.564102,54.565061 c -2.582619,0.0713 -5.128689,-0.62258 -7.318008,-1.994374 C 12.0568,51.198834 10.321986,49.210262 9.2598372,46.855129 8.1976898,44.499937 7.8556297,41.883282 8.276674,39.334221 c 0.4210443,-2.54906 1.5863923,-4.916755 3.349494,-6.80524 1.763107,-1.888508 4.045257,-3.213549 6.559444,-3.808483 2.514127,-0.594933 5.148069,-0.433197 7.570616,0.464867 2.422487,0.89807 4.52537,2.492366 6.044135,4.5824 1.518825,2.090046 2.385759,4.582519 2.491756,7.163941 0.100912,3.490528 -1.179062,6.880024 -3.56207,9.432495 -2.383007,2.55253 -5.676736,4.062083 -9.165947,4.20086 z"
               fill="#616262"
               id="path34256" /></g></g><text
           xml:space="preserve"
           style="font-style:normal;font-weight:normal;font-size:6.74246px;line-height:1.25;font-family:sans-serif;fill:#a0892c;fill-opacity:1;stroke:#ff0000;stroke-width:0.168563"
           x="823.82764"
           y="215.27718"
           id="text34264"><tspan
             sodipodi:role="line"
             id="tspan34262"
             style="fill:#a0892c;fill-opacity:1;stroke:#ff0000;stroke-width:0.168563"
             x="823.82764"
             y="215.27718">SPARK-X</tspan></text></g><g
         id="g34330"
         transform="translate(-104.50368,-45.098501)"><g
           transform="matrix(0.18096092,0,0,0.18096092,229.13351,52.423936)"
           id="g34206"
           style="fill:#e9ddaf;stroke:#a0892c"><path
             style="fill:#e9ddaf;fill-opacity:1;stroke:#a0892c;stroke-width:15.0041;stroke-linecap:round;stroke-linejoin:round;stroke-miterlimit:4;stroke-dasharray:none;stroke-opacity:1"
             d="m 2940.2664,858.23293 v 345.09367 h 270.0733 V 940.75533 h -82.5224 v -82.5224 l 82.5224,82.5224 -82.5224,-82.5224 z"
             id="path34202"
             inkscape:connector-curvature="0" /><path
             style="opacity:1;fill:#e9ddaf;fill-opacity:1;stroke:#a0892c;stroke-width:4.75522;stroke-linecap:round;stroke-linejoin:round;stroke-miterlimit:4;stroke-dasharray:none;stroke-dashoffset:0"
             d="m 3130.1528,901.36761 v -37.48557 l 37.1882,37.17326 c 20.4535,20.44523 37.1882,37.31378 37.1882,37.48558 0,0.17172 -16.7347,0.31231 -37.1882,0.31231 h -37.1882 z"
             id="path34204"
             inkscape:connector-curvature="0" /></g><g
           id="g34222"
           transform="matrix(0.11655457,0,0,0.11655457,770.33534,229.38691)"><g
             id="g34220"><path
               d="m 10.583831,156.40966 v -0.21301 -32.53902 h 7.136222 v 35.25503 c 0.331568,2.84127 0.08751,5.72022 -0.71769,8.46512 -0.805143,2.74491 -2.154924,5.29947 -3.968768,7.51146 -3.3711325,2.90785 -7.6906105,4.48033 -12.14221328,4.42015 L 0.14580504,173.9839 c 2.87138126,0.002 5.64149746,-1.06092 7.77525176,-2.98232 1.9172092,-2.23669 2.6627742,-5.27225 2.6627742,-14.59192 z m 53.219945,-4.20063 c 0,3.99414 0,7.56225 0.319485,10.65104 h -6.33736 l -0.42602,-6.33736 c -1.325554,2.24232 -3.221229,4.09361 -5.494232,5.36575 -2.273064,1.27213 -4.842403,1.91978 -7.446854,1.87695 -6.177588,0 -13.52682,-3.35504 -13.52682,-17.0417 v -22.73999 h 7.136222 v 21.3021 c 0,7.40253 2.289992,12.35524 8.733886,12.35524 1.325735,0.0143 2.640941,-0.23634 3.868574,-0.73713 1.227634,-0.50079 2.342871,-1.24163 3.280389,-2.17915 0.93746,-0.93746 1.678359,-2.05276 2.17915,-3.28033 0.500732,-1.22764 0.751367,-2.5429 0.737131,-3.86864 v -23.85837 h 7.136162 v 28.27858 z m 13.526986,-15.55522 c 0,-4.95277 0,-9.00016 -0.319532,-12.67478 h 6.390658 l 0.319485,6.6569 c 1.423834,-2.40505 3.473599,-4.37867 5.93078,-5.71045 2.457241,-1.33177 5.22978,-1.97178 8.022119,-1.85178 9.479448,0 16.615678,7.93501 16.615678,19.75769 0,13.9529 -8.57412,20.87611 -17.84056,20.87611 -2.371702,0.10582 -4.730604,-0.40227 -6.84844,-1.47515 -2.117837,-1.07295 -3.922889,-2.67432 -5.240488,-4.6492 v 21.30208 h -7.0297 v -42.07165 z m 7.0297,10.38478 c 0.01932,0.96629 0.126275,1.92882 0.319545,2.87579 0.604216,2.36464 1.979718,4.46029 3.908772,5.9553 1.929112,1.49508 4.301652,2.30417 6.742264,2.29927 7.509007,0 11.929217,-6.12435 11.929217,-15.01801 0,-7.77525 -4.15391,-14.43218 -11.66291,-14.43218 -2.971611,0.24334 -5.752405,1.56221 -7.821072,3.7093 -2.068667,2.14709 -3.283141,4.97502 -3.415816,7.95363 z m 42.644038,-23.095 8.57412,22.95306 c 0.90533,2.55624 1.86391,5.64503 2.503,7.93502 0.74556,-2.34323 1.54436,-5.32555 2.503,-8.0948 l 7.77525,-22.79328 h 7.50901 l -10.65104,27.69275 c -5.32555,13.31381 -8.57411,20.18379 -13.47364,24.33769 -2.46777,2.25404 -5.47641,3.83173 -8.73385,4.57992 l -1.75742,-5.96457 c 2.27765,-0.74838 4.39216,-1.92308 6.23089,-3.46158 2.59805,-2.1173 4.65984,-4.8177 6.01781,-7.88179 0.29066,-0.53064 0.48877,-1.10698 0.5858,-1.7042 -0.0605,-0.64268 -0.22228,-1.27172 -0.47926,-1.86391 l -14.48545,-35.84082 h 7.77525 z m 47.80904,-11.17274 v 11.18359 h 10.22502 v 5.32555 h -10.22502 v 20.98258 c 0,4.793 1.38466,7.56225 5.32555,7.56225 1.39967,0.0229 2.79623,-0.13824 4.1539,-0.47926 l 0.31955,5.32549 c -2.03583,0.7053 -4.18405,1.03023 -6.33742,0.95863 -1.42605,0.0892 -2.85455,-0.13106 -4.18746,-0.64585 -1.33292,-0.51479 -2.53866,-1.31185 -3.53456,-2.33647 -2.16922,-2.90138 -3.15874,-6.51687 -2.76925,-10.11848 v -21.30213 h -6.07111 v -5.32555 h 6.17759 v -9.47944 z m 23.37086,31.87666 c -0.14452,1.80613 0.1048,3.62207 0.73079,5.32238 0.62599,1.70031 1.61369,3.24438 2.89492,4.52555 1.28117,1.28123 2.82524,2.26893 4.52555,2.89492 1.70031,0.62599 3.51625,0.87531 5.32238,0.73079 3.65311,0.0817 7.28242,-0.60786 10.65104,-2.02374 l 1.22488,5.32555 c -4.13369,1.70276 -8.5786,2.51921 -13.04756,2.39646 -2.60529,0.17838 -5.2183,-0.20888 -7.65981,-1.13527 -2.44157,-0.92634 -4.6538,-2.36985 -6.4851,-4.23143 -1.83127,-1.86164 -3.23821,-4.09738 -4.12429,-6.55378 -0.8861,-2.45646 -1.23037,-5.07545 -1.00922,-7.67745 0,-11.71614 6.97642,-20.98258 18.37308,-20.98258 12.78125,0 15.97658,11.18358 15.97658,18.31981 0.0683,1.09956 0.0683,2.2023 0,3.30186 h -27.53295 z m 20.87611,-5.32549 c 0.20553,-1.42383 0.10348,-2.87512 -0.29933,-4.25613 -0.40275,-1.381 -1.09687,-2.65966 -2.03552,-3.74978 -0.93872,-1.09005 -2.10014,-1.96625 -3.40607,-2.56955 -1.30593,-0.60328 -2.72606,-0.91962 -4.16455,-0.9277 -2.92609,0.2118 -5.66753,1.50874 -7.68708,3.63669 -2.01956,2.12789 -3.17158,4.93332 -3.23026,7.86647 z m 17.32486,-3.26854 c 0,-4.57993 0,-8.52084 -0.31954,-12.1422 h 6.39066 v 7.61551 h 0.31949 c 0.67079,-2.35047 2.0567,-4.43376 3.96535,-5.96069 1.90866,-1.52694 4.24537,-2.42173 6.68574,-2.56016 0.67169,-0.0882 1.352,-0.0882 2.02369,0 v 6.65694 c -0.81388,-0.0943 -1.63589,-0.0943 -2.44977,0 -2.41746,0.0936 -4.71822,1.06409 -6.47249,2.73019 -1.75426,1.66603 -2.84204,3.91367 -3.0602,6.32318 -0.19913,1.0897 -0.30602,2.19422 -0.31948,3.3018 v 20.71634 h -7.02973 v -26.62768 z"
               fill="#4e4e4e"
               id="path34208" /><path
               d="m 233.25794,16.962136 c 0.2187,3.577741 -0.63251,7.139571 -2.44527,10.231775 -1.81277,3.092263 -4.50492,5.574867 -7.73362,7.131676 -3.22871,1.556749 -6.84773,2.117178 -10.39604,1.609927 -3.54831,-0.507312 -6.86531,-2.059336 -9.52845,-4.458434 -2.66314,-2.399039 -4.55186,-5.536584 -5.42555,-9.012875 -0.87369,-3.476292 -0.6928,-7.134009 0.51961,-10.507115 1.21242,-3.3731062 3.40149,-6.3090006 6.28833,-8.4336207 2.88685,-2.1246202 6.34083,-3.34181204 9.92186,-3.49651893 2.3479,-0.1291975 4.69819,0.20702204 6.91562,0.98932423 2.21749,0.7822986 4.25846,1.995253 6.00555,3.569098 1.74703,1.573851 3.16578,3.4775414 4.17454,5.6015994 1.00876,2.124058 1.58768,4.426611 1.70342,6.775164 z"
               fill="#767677"
               id="path34210" /><path
               d="m 127.95297,225.54098 c -47.929333,0 -90.054517,-17.20146 -111.835905,-42.60426 8.451248,22.85272 23.700571,42.56789 43.695392,56.49184 19.994641,13.92407 43.775663,21.38809 68.140513,21.38809 24.36544,0 48.14587,-7.46402 68.14105,-21.38809 19.99458,-13.92395 35.24384,-33.63912 43.69545,-56.49184 -21.72809,25.4028 -63.69362,42.60426 -111.8365,42.60426 z"
               fill="#f37726"
               id="path34212" /><path
               d="m 127.95297,60.354313 c 47.92993,0 90.05517,17.201466 111.8365,42.604087 C 231.33786,80.105856 216.0886,60.390682 196.09402,46.466735 176.09884,32.542787 152.31841,25.078467 127.95297,25.078467 c -24.36485,0 -48.145872,7.46432 -68.140513,21.388268 C 39.817636,60.390682 24.568313,80.105856 16.117065,102.9584 37.898453,77.502541 79.810687,60.354313 127.95297,60.354313 Z"
               fill="#f37726"
               id="path34214" /><path
               d="m 61.971687,274.9752 c 0.281142,4.50641 -0.785642,8.99451 -3.064388,12.89246 -2.278805,3.89794 -5.666387,7.02927 -9.731163,8.99505 -4.064775,1.96578 -8.622745,2.67701 -13.093143,2.04306 -4.470457,-0.634 -8.650979,-2.58441 -12.008951,-5.6028 -3.357978,-3.01839 -5.741375,-6.96814 -6.846544,-11.34593 -1.105164,-4.37786 -0.882062,-8.98554 0.640884,-13.23617 1.522946,-4.25057 4.276786,-7.95154 7.910637,-10.63139 3.63391,-2.67986 7.983297,-4.21728 12.494071,-4.41637 2.954922,-0.15806 5.912058,0.26763 8.702482,1.25274 2.790364,0.98511 5.359344,2.51034 7.560088,4.48855 2.200744,1.97823 3.990243,4.37063 5.266089,7.04064 1.275907,2.66996 2.013276,5.56518 2.169938,8.52016 z"
               fill="#9e9e9e"
               id="path34216" /><path
               d="m 21.564102,54.565061 c -2.582619,0.0713 -5.128689,-0.62258 -7.318008,-1.994374 C 12.0568,51.198834 10.321986,49.210262 9.2598372,46.855129 8.1976898,44.499937 7.8556297,41.883282 8.276674,39.334221 c 0.4210443,-2.54906 1.5863923,-4.916755 3.349494,-6.80524 1.763107,-1.888508 4.045257,-3.213549 6.559444,-3.808483 2.514127,-0.594933 5.148069,-0.433197 7.570616,0.464867 2.422487,0.89807 4.52537,2.492366 6.044135,4.5824 1.518825,2.090046 2.385759,4.582519 2.491756,7.163941 0.100912,3.490528 -1.179062,6.880024 -3.56207,9.432495 -2.383007,2.55253 -5.676736,4.062083 -9.165947,4.20086 z"
               fill="#616262"
               id="path34218" /></g></g><text
           xml:space="preserve"
           style="font-style:normal;font-weight:normal;font-size:6.74246px;line-height:1.25;font-family:sans-serif;fill:#a0892c;fill-opacity:1;stroke:#ff0000;stroke-width:0.168563"
           x="768.31256"
           y="215.27718"
           id="text34226"><tspan
             sodipodi:role="line"
             id="tspan34224"
             style="fill:#a0892c;fill-opacity:1;stroke:#ff0000;stroke-width:0.168563"
             x="768.31256"
             y="215.27718">DestVI</tspan></text></g><g
         id="g34357"
         transform="translate(-54.990247,-33.095245)"><g
           transform="matrix(0.18096092,0,0,0.18096092,169.11723,52.423936)"
           id="g34156"
           style="fill:#e9ddaf;stroke:#a0892c"><path
             style="fill:#e9ddaf;fill-opacity:1;stroke:#a0892c;stroke-width:15.0041;stroke-linecap:round;stroke-linejoin:round;stroke-miterlimit:4;stroke-dasharray:none;stroke-opacity:1"
             d="m 2940.2664,858.23293 v 345.09367 h 270.0733 V 940.75533 h -82.5224 v -82.5224 l 82.5224,82.5224 -82.5224,-82.5224 z"
             id="path34152"
             inkscape:connector-curvature="0" /><path
             style="opacity:1;fill:#e9ddaf;fill-opacity:1;stroke:#a0892c;stroke-width:4.75522;stroke-linecap:round;stroke-linejoin:round;stroke-miterlimit:4;stroke-dasharray:none;stroke-dashoffset:0"
             d="m 3130.1528,901.36761 v -37.48557 l 37.1882,37.17326 c 20.4535,20.44523 37.1882,37.31378 37.1882,37.48558 0,0.17172 -16.7347,0.31231 -37.1882,0.31231 h -37.1882 z"
             id="path34154"
             inkscape:connector-curvature="0" /></g><g
           id="g34172"
           transform="matrix(0.11655457,0,0,0.11655457,710.31906,229.38691)"><g
             id="g34170"><path
               d="m 10.583831,156.40966 v -0.21301 -32.53902 h 7.136222 v 35.25503 c 0.331568,2.84127 0.08751,5.72022 -0.71769,8.46512 -0.805143,2.74491 -2.154924,5.29947 -3.968768,7.51146 -3.3711325,2.90785 -7.6906105,4.48033 -12.14221328,4.42015 L 0.14580504,173.9839 c 2.87138126,0.002 5.64149746,-1.06092 7.77525176,-2.98232 1.9172092,-2.23669 2.6627742,-5.27225 2.6627742,-14.59192 z m 53.219945,-4.20063 c 0,3.99414 0,7.56225 0.319485,10.65104 h -6.33736 l -0.42602,-6.33736 c -1.325554,2.24232 -3.221229,4.09361 -5.494232,5.36575 -2.273064,1.27213 -4.842403,1.91978 -7.446854,1.87695 -6.177588,0 -13.52682,-3.35504 -13.52682,-17.0417 v -22.73999 h 7.136222 v 21.3021 c 0,7.40253 2.289992,12.35524 8.733886,12.35524 1.325735,0.0143 2.640941,-0.23634 3.868574,-0.73713 1.227634,-0.50079 2.342871,-1.24163 3.280389,-2.17915 0.93746,-0.93746 1.678359,-2.05276 2.17915,-3.28033 0.500732,-1.22764 0.751367,-2.5429 0.737131,-3.86864 v -23.85837 h 7.136162 v 28.27858 z m 13.526986,-15.55522 c 0,-4.95277 0,-9.00016 -0.319532,-12.67478 h 6.390658 l 0.319485,6.6569 c 1.423834,-2.40505 3.473599,-4.37867 5.93078,-5.71045 2.457241,-1.33177 5.22978,-1.97178 8.022119,-1.85178 9.479448,0 16.615678,7.93501 16.615678,19.75769 0,13.9529 -8.57412,20.87611 -17.84056,20.87611 -2.371702,0.10582 -4.730604,-0.40227 -6.84844,-1.47515 -2.117837,-1.07295 -3.922889,-2.67432 -5.240488,-4.6492 v 21.30208 h -7.0297 v -42.07165 z m 7.0297,10.38478 c 0.01932,0.96629 0.126275,1.92882 0.319545,2.87579 0.604216,2.36464 1.979718,4.46029 3.908772,5.9553 1.929112,1.49508 4.301652,2.30417 6.742264,2.29927 7.509007,0 11.929217,-6.12435 11.929217,-15.01801 0,-7.77525 -4.15391,-14.43218 -11.66291,-14.43218 -2.971611,0.24334 -5.752405,1.56221 -7.821072,3.7093 -2.068667,2.14709 -3.283141,4.97502 -3.415816,7.95363 z m 42.644038,-23.095 8.57412,22.95306 c 0.90533,2.55624 1.86391,5.64503 2.503,7.93502 0.74556,-2.34323 1.54436,-5.32555 2.503,-8.0948 l 7.77525,-22.79328 h 7.50901 l -10.65104,27.69275 c -5.32555,13.31381 -8.57411,20.18379 -13.47364,24.33769 -2.46777,2.25404 -5.47641,3.83173 -8.73385,4.57992 l -1.75742,-5.96457 c 2.27765,-0.74838 4.39216,-1.92308 6.23089,-3.46158 2.59805,-2.1173 4.65984,-4.8177 6.01781,-7.88179 0.29066,-0.53064 0.48877,-1.10698 0.5858,-1.7042 -0.0605,-0.64268 -0.22228,-1.27172 -0.47926,-1.86391 l -14.48545,-35.84082 h 7.77525 z m 47.80904,-11.17274 v 11.18359 h 10.22502 v 5.32555 h -10.22502 v 20.98258 c 0,4.793 1.38466,7.56225 5.32555,7.56225 1.39967,0.0229 2.79623,-0.13824 4.1539,-0.47926 l 0.31955,5.32549 c -2.03583,0.7053 -4.18405,1.03023 -6.33742,0.95863 -1.42605,0.0892 -2.85455,-0.13106 -4.18746,-0.64585 -1.33292,-0.51479 -2.53866,-1.31185 -3.53456,-2.33647 -2.16922,-2.90138 -3.15874,-6.51687 -2.76925,-10.11848 v -21.30213 h -6.07111 v -5.32555 h 6.17759 v -9.47944 z m 23.37086,31.87666 c -0.14452,1.80613 0.1048,3.62207 0.73079,5.32238 0.62599,1.70031 1.61369,3.24438 2.89492,4.52555 1.28117,1.28123 2.82524,2.26893 4.52555,2.89492 1.70031,0.62599 3.51625,0.87531 5.32238,0.73079 3.65311,0.0817 7.28242,-0.60786 10.65104,-2.02374 l 1.22488,5.32555 c -4.13369,1.70276 -8.5786,2.51921 -13.04756,2.39646 -2.60529,0.17838 -5.2183,-0.20888 -7.65981,-1.13527 -2.44157,-0.92634 -4.6538,-2.36985 -6.4851,-4.23143 -1.83127,-1.86164 -3.23821,-4.09738 -4.12429,-6.55378 -0.8861,-2.45646 -1.23037,-5.07545 -1.00922,-7.67745 0,-11.71614 6.97642,-20.98258 18.37308,-20.98258 12.78125,0 15.97658,11.18358 15.97658,18.31981 0.0683,1.09956 0.0683,2.2023 0,3.30186 h -27.53295 z m 20.87611,-5.32549 c 0.20553,-1.42383 0.10348,-2.87512 -0.29933,-4.25613 -0.40275,-1.381 -1.09687,-2.65966 -2.03552,-3.74978 -0.93872,-1.09005 -2.10014,-1.96625 -3.40607,-2.56955 -1.30593,-0.60328 -2.72606,-0.91962 -4.16455,-0.9277 -2.92609,0.2118 -5.66753,1.50874 -7.68708,3.63669 -2.01956,2.12789 -3.17158,4.93332 -3.23026,7.86647 z m 17.32486,-3.26854 c 0,-4.57993 0,-8.52084 -0.31954,-12.1422 h 6.39066 v 7.61551 h 0.31949 c 0.67079,-2.35047 2.0567,-4.43376 3.96535,-5.96069 1.90866,-1.52694 4.24537,-2.42173 6.68574,-2.56016 0.67169,-0.0882 1.352,-0.0882 2.02369,0 v 6.65694 c -0.81388,-0.0943 -1.63589,-0.0943 -2.44977,0 -2.41746,0.0936 -4.71822,1.06409 -6.47249,2.73019 -1.75426,1.66603 -2.84204,3.91367 -3.0602,6.32318 -0.19913,1.0897 -0.30602,2.19422 -0.31948,3.3018 v 20.71634 h -7.02973 v -26.62768 z"
               fill="#4e4e4e"
               id="path34158" /><path
               d="m 233.25794,16.962136 c 0.2187,3.577741 -0.63251,7.139571 -2.44527,10.231775 -1.81277,3.092263 -4.50492,5.574867 -7.73362,7.131676 -3.22871,1.556749 -6.84773,2.117178 -10.39604,1.609927 -3.54831,-0.507312 -6.86531,-2.059336 -9.52845,-4.458434 -2.66314,-2.399039 -4.55186,-5.536584 -5.42555,-9.012875 -0.87369,-3.476292 -0.6928,-7.134009 0.51961,-10.507115 1.21242,-3.3731062 3.40149,-6.3090006 6.28833,-8.4336207 2.88685,-2.1246202 6.34083,-3.34181204 9.92186,-3.49651893 2.3479,-0.1291975 4.69819,0.20702204 6.91562,0.98932423 2.21749,0.7822986 4.25846,1.995253 6.00555,3.569098 1.74703,1.573851 3.16578,3.4775414 4.17454,5.6015994 1.00876,2.124058 1.58768,4.426611 1.70342,6.775164 z"
               fill="#767677"
               id="path34160" /><path
               d="m 127.95297,225.54098 c -47.929333,0 -90.054517,-17.20146 -111.835905,-42.60426 8.451248,22.85272 23.700571,42.56789 43.695392,56.49184 19.994641,13.92407 43.775663,21.38809 68.140513,21.38809 24.36544,0 48.14587,-7.46402 68.14105,-21.38809 19.99458,-13.92395 35.24384,-33.63912 43.69545,-56.49184 -21.72809,25.4028 -63.69362,42.60426 -111.8365,42.60426 z"
               fill="#f37726"
               id="path34162" /><path
               d="m 127.95297,60.354313 c 47.92993,0 90.05517,17.201466 111.8365,42.604087 C 231.33786,80.105856 216.0886,60.390682 196.09402,46.466735 176.09884,32.542787 152.31841,25.078467 127.95297,25.078467 c -24.36485,0 -48.145872,7.46432 -68.140513,21.388268 C 39.817636,60.390682 24.568313,80.105856 16.117065,102.9584 37.898453,77.502541 79.810687,60.354313 127.95297,60.354313 Z"
               fill="#f37726"
               id="path34164" /><path
               d="m 61.971687,274.9752 c 0.281142,4.50641 -0.785642,8.99451 -3.064388,12.89246 -2.278805,3.89794 -5.666387,7.02927 -9.731163,8.99505 -4.064775,1.96578 -8.622745,2.67701 -13.093143,2.04306 -4.470457,-0.634 -8.650979,-2.58441 -12.008951,-5.6028 -3.357978,-3.01839 -5.741375,-6.96814 -6.846544,-11.34593 -1.105164,-4.37786 -0.882062,-8.98554 0.640884,-13.23617 1.522946,-4.25057 4.276786,-7.95154 7.910637,-10.63139 3.63391,-2.67986 7.983297,-4.21728 12.494071,-4.41637 2.954922,-0.15806 5.912058,0.26763 8.702482,1.25274 2.790364,0.98511 5.359344,2.51034 7.560088,4.48855 2.200744,1.97823 3.990243,4.37063 5.266089,7.04064 1.275907,2.66996 2.013276,5.56518 2.169938,8.52016 z"
               fill="#9e9e9e"
               id="path34166" /><path
               d="m 21.564102,54.565061 c -2.582619,0.0713 -5.128689,-0.62258 -7.318008,-1.994374 C 12.0568,51.198834 10.321986,49.210262 9.2598372,46.855129 8.1976898,44.499937 7.8556297,41.883282 8.276674,39.334221 c 0.4210443,-2.54906 1.5863923,-4.916755 3.349494,-6.80524 1.763107,-1.888508 4.045257,-3.213549 6.559444,-3.808483 2.514127,-0.594933 5.148069,-0.433197 7.570616,0.464867 2.422487,0.89807 4.52537,2.492366 6.044135,4.5824 1.518825,2.090046 2.385759,4.582519 2.491756,7.163941 0.100912,3.490528 -1.179062,6.880024 -3.56207,9.432495 -2.383007,2.55253 -5.676736,4.062083 -9.165947,4.20086 z"
               fill="#616262"
               id="path34168" /></g></g><text
           xml:space="preserve"
           style="font-style:normal;font-weight:normal;font-size:6.74246px;line-height:1.25;font-family:sans-serif;fill:#a0892c;fill-opacity:1;stroke:#ff0000;stroke-width:0.168563"
           x="708.2962"
           y="215.27718"
           id="text34176"><tspan
             sodipodi:role="line"
             id="tspan34174"
             style="fill:#a0892c;fill-opacity:1;stroke:#ff0000;stroke-width:0.168563"
             x="708.2962"
             y="215.27718">RCTD</tspan></text></g><g
         id="g34384"
         transform="translate(-5.4767955,-21.091989)"><g
           transform="matrix(0.18096092,0,0,0.18096092,109.10095,52.423936)"
           id="g34082"
           style="fill:#e9ddaf;stroke:#a0892c"><path
             style="fill:#e9ddaf;fill-opacity:1;stroke:#a0892c;stroke-width:15.0041;stroke-linecap:round;stroke-linejoin:round;stroke-miterlimit:4;stroke-dasharray:none;stroke-opacity:1"
             d="m 2940.2664,858.23293 v 345.09367 h 270.0733 V 940.75533 h -82.5224 v -82.5224 l 82.5224,82.5224 -82.5224,-82.5224 z"
             id="path34078"
             inkscape:connector-curvature="0" /><path
             style="opacity:1;fill:#e9ddaf;fill-opacity:1;stroke:#a0892c;stroke-width:4.75522;stroke-linecap:round;stroke-linejoin:round;stroke-miterlimit:4;stroke-dasharray:none;stroke-dashoffset:0"
             d="m 3130.1528,901.36761 v -37.48557 l 37.1882,37.17326 c 20.4535,20.44523 37.1882,37.31378 37.1882,37.48558 0,0.17172 -16.7347,0.31231 -37.1882,0.31231 h -37.1882 z"
             id="path34080"
             inkscape:connector-curvature="0" /></g><g
           id="g34098"
           transform="matrix(0.11655457,0,0,0.11655457,650.30278,229.38691)"><g
             id="g34096"><path
               d="m 10.583831,156.40966 v -0.21301 -32.53902 h 7.136222 v 35.25503 c 0.331568,2.84127 0.08751,5.72022 -0.71769,8.46512 -0.805143,2.74491 -2.154924,5.29947 -3.968768,7.51146 -3.3711325,2.90785 -7.6906105,4.48033 -12.14221328,4.42015 L 0.14580504,173.9839 c 2.87138126,0.002 5.64149746,-1.06092 7.77525176,-2.98232 1.9172092,-2.23669 2.6627742,-5.27225 2.6627742,-14.59192 z m 53.219945,-4.20063 c 0,3.99414 0,7.56225 0.319485,10.65104 h -6.33736 l -0.42602,-6.33736 c -1.325554,2.24232 -3.221229,4.09361 -5.494232,5.36575 -2.273064,1.27213 -4.842403,1.91978 -7.446854,1.87695 -6.177588,0 -13.52682,-3.35504 -13.52682,-17.0417 v -22.73999 h 7.136222 v 21.3021 c 0,7.40253 2.289992,12.35524 8.733886,12.35524 1.325735,0.0143 2.640941,-0.23634 3.868574,-0.73713 1.227634,-0.50079 2.342871,-1.24163 3.280389,-2.17915 0.93746,-0.93746 1.678359,-2.05276 2.17915,-3.28033 0.500732,-1.22764 0.751367,-2.5429 0.737131,-3.86864 v -23.85837 h 7.136162 v 28.27858 z m 13.526986,-15.55522 c 0,-4.95277 0,-9.00016 -0.319532,-12.67478 h 6.390658 l 0.319485,6.6569 c 1.423834,-2.40505 3.473599,-4.37867 5.93078,-5.71045 2.457241,-1.33177 5.22978,-1.97178 8.022119,-1.85178 9.479448,0 16.615678,7.93501 16.615678,19.75769 0,13.9529 -8.57412,20.87611 -17.84056,20.87611 -2.371702,0.10582 -4.730604,-0.40227 -6.84844,-1.47515 -2.117837,-1.07295 -3.922889,-2.67432 -5.240488,-4.6492 v 21.30208 h -7.0297 v -42.07165 z m 7.0297,10.38478 c 0.01932,0.96629 0.126275,1.92882 0.319545,2.87579 0.604216,2.36464 1.979718,4.46029 3.908772,5.9553 1.929112,1.49508 4.301652,2.30417 6.742264,2.29927 7.509007,0 11.929217,-6.12435 11.929217,-15.01801 0,-7.77525 -4.15391,-14.43218 -11.66291,-14.43218 -2.971611,0.24334 -5.752405,1.56221 -7.821072,3.7093 -2.068667,2.14709 -3.283141,4.97502 -3.415816,7.95363 z m 42.644038,-23.095 8.57412,22.95306 c 0.90533,2.55624 1.86391,5.64503 2.503,7.93502 0.74556,-2.34323 1.54436,-5.32555 2.503,-8.0948 l 7.77525,-22.79328 h 7.50901 l -10.65104,27.69275 c -5.32555,13.31381 -8.57411,20.18379 -13.47364,24.33769 -2.46777,2.25404 -5.47641,3.83173 -8.73385,4.57992 l -1.75742,-5.96457 c 2.27765,-0.74838 4.39216,-1.92308 6.23089,-3.46158 2.59805,-2.1173 4.65984,-4.8177 6.01781,-7.88179 0.29066,-0.53064 0.48877,-1.10698 0.5858,-1.7042 -0.0605,-0.64268 -0.22228,-1.27172 -0.47926,-1.86391 l -14.48545,-35.84082 h 7.77525 z m 47.80904,-11.17274 v 11.18359 h 10.22502 v 5.32555 h -10.22502 v 20.98258 c 0,4.793 1.38466,7.56225 5.32555,7.56225 1.39967,0.0229 2.79623,-0.13824 4.1539,-0.47926 l 0.31955,5.32549 c -2.03583,0.7053 -4.18405,1.03023 -6.33742,0.95863 -1.42605,0.0892 -2.85455,-0.13106 -4.18746,-0.64585 -1.33292,-0.51479 -2.53866,-1.31185 -3.53456,-2.33647 -2.16922,-2.90138 -3.15874,-6.51687 -2.76925,-10.11848 v -21.30213 h -6.07111 v -5.32555 h 6.17759 v -9.47944 z m 23.37086,31.87666 c -0.14452,1.80613 0.1048,3.62207 0.73079,5.32238 0.62599,1.70031 1.61369,3.24438 2.89492,4.52555 1.28117,1.28123 2.82524,2.26893 4.52555,2.89492 1.70031,0.62599 3.51625,0.87531 5.32238,0.73079 3.65311,0.0817 7.28242,-0.60786 10.65104,-2.02374 l 1.22488,5.32555 c -4.13369,1.70276 -8.5786,2.51921 -13.04756,2.39646 -2.60529,0.17838 -5.2183,-0.20888 -7.65981,-1.13527 -2.44157,-0.92634 -4.6538,-2.36985 -6.4851,-4.23143 -1.83127,-1.86164 -3.23821,-4.09738 -4.12429,-6.55378 -0.8861,-2.45646 -1.23037,-5.07545 -1.00922,-7.67745 0,-11.71614 6.97642,-20.98258 18.37308,-20.98258 12.78125,0 15.97658,11.18358 15.97658,18.31981 0.0683,1.09956 0.0683,2.2023 0,3.30186 h -27.53295 z m 20.87611,-5.32549 c 0.20553,-1.42383 0.10348,-2.87512 -0.29933,-4.25613 -0.40275,-1.381 -1.09687,-2.65966 -2.03552,-3.74978 -0.93872,-1.09005 -2.10014,-1.96625 -3.40607,-2.56955 -1.30593,-0.60328 -2.72606,-0.91962 -4.16455,-0.9277 -2.92609,0.2118 -5.66753,1.50874 -7.68708,3.63669 -2.01956,2.12789 -3.17158,4.93332 -3.23026,7.86647 z m 17.32486,-3.26854 c 0,-4.57993 0,-8.52084 -0.31954,-12.1422 h 6.39066 v 7.61551 h 0.31949 c 0.67079,-2.35047 2.0567,-4.43376 3.96535,-5.96069 1.90866,-1.52694 4.24537,-2.42173 6.68574,-2.56016 0.67169,-0.0882 1.352,-0.0882 2.02369,0 v 6.65694 c -0.81388,-0.0943 -1.63589,-0.0943 -2.44977,0 -2.41746,0.0936 -4.71822,1.06409 -6.47249,2.73019 -1.75426,1.66603 -2.84204,3.91367 -3.0602,6.32318 -0.19913,1.0897 -0.30602,2.19422 -0.31948,3.3018 v 20.71634 h -7.02973 v -26.62768 z"
               fill="#4e4e4e"
               id="path34084" /><path
               d="m 233.25794,16.962136 c 0.2187,3.577741 -0.63251,7.139571 -2.44527,10.231775 -1.81277,3.092263 -4.50492,5.574867 -7.73362,7.131676 -3.22871,1.556749 -6.84773,2.117178 -10.39604,1.609927 -3.54831,-0.507312 -6.86531,-2.059336 -9.52845,-4.458434 -2.66314,-2.399039 -4.55186,-5.536584 -5.42555,-9.012875 -0.87369,-3.476292 -0.6928,-7.134009 0.51961,-10.507115 1.21242,-3.3731062 3.40149,-6.3090006 6.28833,-8.4336207 2.88685,-2.1246202 6.34083,-3.34181204 9.92186,-3.49651893 2.3479,-0.1291975 4.69819,0.20702204 6.91562,0.98932423 2.21749,0.7822986 4.25846,1.995253 6.00555,3.569098 1.74703,1.573851 3.16578,3.4775414 4.17454,5.6015994 1.00876,2.124058 1.58768,4.426611 1.70342,6.775164 z"
               fill="#767677"
               id="path34086" /><path
               d="m 127.95297,225.54098 c -47.929333,0 -90.054517,-17.20146 -111.835905,-42.60426 8.451248,22.85272 23.700571,42.56789 43.695392,56.49184 19.994641,13.92407 43.775663,21.38809 68.140513,21.38809 24.36544,0 48.14587,-7.46402 68.14105,-21.38809 19.99458,-13.92395 35.24384,-33.63912 43.69545,-56.49184 -21.72809,25.4028 -63.69362,42.60426 -111.8365,42.60426 z"
               fill="#f37726"
               id="path34088" /><path
               d="m 127.95297,60.354313 c 47.92993,0 90.05517,17.201466 111.8365,42.604087 C 231.33786,80.105856 216.0886,60.390682 196.09402,46.466735 176.09884,32.542787 152.31841,25.078467 127.95297,25.078467 c -24.36485,0 -48.145872,7.46432 -68.140513,21.388268 C 39.817636,60.390682 24.568313,80.105856 16.117065,102.9584 37.898453,77.502541 79.810687,60.354313 127.95297,60.354313 Z"
               fill="#f37726"
               id="path34090" /><path
               d="m 61.971687,274.9752 c 0.281142,4.50641 -0.785642,8.99451 -3.064388,12.89246 -2.278805,3.89794 -5.666387,7.02927 -9.731163,8.99505 -4.064775,1.96578 -8.622745,2.67701 -13.093143,2.04306 -4.470457,-0.634 -8.650979,-2.58441 -12.008951,-5.6028 -3.357978,-3.01839 -5.741375,-6.96814 -6.846544,-11.34593 -1.105164,-4.37786 -0.882062,-8.98554 0.640884,-13.23617 1.522946,-4.25057 4.276786,-7.95154 7.910637,-10.63139 3.63391,-2.67986 7.983297,-4.21728 12.494071,-4.41637 2.954922,-0.15806 5.912058,0.26763 8.702482,1.25274 2.790364,0.98511 5.359344,2.51034 7.560088,4.48855 2.200744,1.97823 3.990243,4.37063 5.266089,7.04064 1.275907,2.66996 2.013276,5.56518 2.169938,8.52016 z"
               fill="#9e9e9e"
               id="path34092" /><path
               d="m 21.564102,54.565061 c -2.582619,0.0713 -5.128689,-0.62258 -7.318008,-1.994374 C 12.0568,51.198834 10.321986,49.210262 9.2598372,46.855129 8.1976898,44.499937 7.8556297,41.883282 8.276674,39.334221 c 0.4210443,-2.54906 1.5863923,-4.916755 3.349494,-6.80524 1.763107,-1.888508 4.045257,-3.213549 6.559444,-3.808483 2.514127,-0.594933 5.148069,-0.433197 7.570616,0.464867 2.422487,0.89807 4.52537,2.492366 6.044135,4.5824 1.518825,2.090046 2.385759,4.582519 2.491756,7.163941 0.100912,3.490528 -1.179062,6.880024 -3.56207,9.432495 -2.383007,2.55253 -5.676736,4.062083 -9.165947,4.20086 z"
               fill="#616262"
               id="path34094" /></g></g><text
           xml:space="preserve"
           style="font-style:normal;font-weight:normal;font-size:6.74246px;line-height:1.25;font-family:sans-serif;fill:#a0892c;fill-opacity:1;stroke:#ff0000;stroke-width:0.168563"
           x="646.77942"
           y="215.27718"
           id="text34102"><tspan
             sodipodi:role="line"
             id="tspan34100"
             style="fill:#a0892c;fill-opacity:1;stroke:#ff0000;stroke-width:0.168563"
             x="646.77942"
             y="215.27718">Scanpy</tspan></text></g><g
         id="g34411"
         transform="translate(44.036625,-9.0887323)"><g
           transform="matrix(0.18096092,0,0,0.18096092,49.084657,52.423936)"
           id="g33896"
           style="fill:#e9ddaf;stroke:#a0892c"><path
             style="fill:#e9ddaf;fill-opacity:1;stroke:#a0892c;stroke-width:15.0041;stroke-linecap:round;stroke-linejoin:round;stroke-miterlimit:4;stroke-dasharray:none;stroke-opacity:1"
             d="m 2940.2664,858.23293 v 345.09367 h 270.0733 V 940.75533 h -82.5224 v -82.5224 l 82.5224,82.5224 -82.5224,-82.5224 z"
             id="path33892"
             inkscape:connector-curvature="0" /><path
             style="opacity:1;fill:#e9ddaf;fill-opacity:1;stroke:#a0892c;stroke-width:4.75522;stroke-linecap:round;stroke-linejoin:round;stroke-miterlimit:4;stroke-dasharray:none;stroke-dashoffset:0"
             d="m 3130.1528,901.36761 v -37.48557 l 37.1882,37.17326 c 20.4535,20.44523 37.1882,37.31378 37.1882,37.48558 0,0.17172 -16.7347,0.31231 -37.1882,0.31231 h -37.1882 z"
             id="path33894"
             inkscape:connector-curvature="0" /></g><g
           id="g27185"
           transform="matrix(0.11655457,0,0,0.11655457,590.2865,229.38691)"><g
             id="g27183"><path
               d="m 10.583831,156.40966 v -0.21301 -32.53902 h 7.136222 v 35.25503 c 0.331568,2.84127 0.08751,5.72022 -0.71769,8.46512 -0.805143,2.74491 -2.154924,5.29947 -3.968768,7.51146 -3.3711325,2.90785 -7.6906105,4.48033 -12.14221328,4.42015 L 0.14580504,173.9839 c 2.87138126,0.002 5.64149746,-1.06092 7.77525176,-2.98232 1.9172092,-2.23669 2.6627742,-5.27225 2.6627742,-14.59192 z m 53.219945,-4.20063 c 0,3.99414 0,7.56225 0.319485,10.65104 h -6.33736 l -0.42602,-6.33736 c -1.325554,2.24232 -3.221229,4.09361 -5.494232,5.36575 -2.273064,1.27213 -4.842403,1.91978 -7.446854,1.87695 -6.177588,0 -13.52682,-3.35504 -13.52682,-17.0417 v -22.73999 h 7.136222 v 21.3021 c 0,7.40253 2.289992,12.35524 8.733886,12.35524 1.325735,0.0143 2.640941,-0.23634 3.868574,-0.73713 1.227634,-0.50079 2.342871,-1.24163 3.280389,-2.17915 0.93746,-0.93746 1.678359,-2.05276 2.17915,-3.28033 0.500732,-1.22764 0.751367,-2.5429 0.737131,-3.86864 v -23.85837 h 7.136162 v 28.27858 z m 13.526986,-15.55522 c 0,-4.95277 0,-9.00016 -0.319532,-12.67478 h 6.390658 l 0.319485,6.6569 c 1.423834,-2.40505 3.473599,-4.37867 5.93078,-5.71045 2.457241,-1.33177 5.22978,-1.97178 8.022119,-1.85178 9.479448,0 16.615678,7.93501 16.615678,19.75769 0,13.9529 -8.57412,20.87611 -17.84056,20.87611 -2.371702,0.10582 -4.730604,-0.40227 -6.84844,-1.47515 -2.117837,-1.07295 -3.922889,-2.67432 -5.240488,-4.6492 v 21.30208 h -7.0297 v -42.07165 z m 7.0297,10.38478 c 0.01932,0.96629 0.126275,1.92882 0.319545,2.87579 0.604216,2.36464 1.979718,4.46029 3.908772,5.9553 1.929112,1.49508 4.301652,2.30417 6.742264,2.29927 7.509007,0 11.929217,-6.12435 11.929217,-15.01801 0,-7.77525 -4.15391,-14.43218 -11.66291,-14.43218 -2.971611,0.24334 -5.752405,1.56221 -7.821072,3.7093 -2.068667,2.14709 -3.283141,4.97502 -3.415816,7.95363 z m 42.644038,-23.095 8.57412,22.95306 c 0.90533,2.55624 1.86391,5.64503 2.503,7.93502 0.74556,-2.34323 1.54436,-5.32555 2.503,-8.0948 l 7.77525,-22.79328 h 7.50901 l -10.65104,27.69275 c -5.32555,13.31381 -8.57411,20.18379 -13.47364,24.33769 -2.46777,2.25404 -5.47641,3.83173 -8.73385,4.57992 l -1.75742,-5.96457 c 2.27765,-0.74838 4.39216,-1.92308 6.23089,-3.46158 2.59805,-2.1173 4.65984,-4.8177 6.01781,-7.88179 0.29066,-0.53064 0.48877,-1.10698 0.5858,-1.7042 -0.0605,-0.64268 -0.22228,-1.27172 -0.47926,-1.86391 l -14.48545,-35.84082 h 7.77525 z m 47.80904,-11.17274 v 11.18359 h 10.22502 v 5.32555 h -10.22502 v 20.98258 c 0,4.793 1.38466,7.56225 5.32555,7.56225 1.39967,0.0229 2.79623,-0.13824 4.1539,-0.47926 l 0.31955,5.32549 c -2.03583,0.7053 -4.18405,1.03023 -6.33742,0.95863 -1.42605,0.0892 -2.85455,-0.13106 -4.18746,-0.64585 -1.33292,-0.51479 -2.53866,-1.31185 -3.53456,-2.33647 -2.16922,-2.90138 -3.15874,-6.51687 -2.76925,-10.11848 v -21.30213 h -6.07111 v -5.32555 h 6.17759 v -9.47944 z m 23.37086,31.87666 c -0.14452,1.80613 0.1048,3.62207 0.73079,5.32238 0.62599,1.70031 1.61369,3.24438 2.89492,4.52555 1.28117,1.28123 2.82524,2.26893 4.52555,2.89492 1.70031,0.62599 3.51625,0.87531 5.32238,0.73079 3.65311,0.0817 7.28242,-0.60786 10.65104,-2.02374 l 1.22488,5.32555 c -4.13369,1.70276 -8.5786,2.51921 -13.04756,2.39646 -2.60529,0.17838 -5.2183,-0.20888 -7.65981,-1.13527 -2.44157,-0.92634 -4.6538,-2.36985 -6.4851,-4.23143 -1.83127,-1.86164 -3.23821,-4.09738 -4.12429,-6.55378 -0.8861,-2.45646 -1.23037,-5.07545 -1.00922,-7.67745 0,-11.71614 6.97642,-20.98258 18.37308,-20.98258 12.78125,0 15.97658,11.18358 15.97658,18.31981 0.0683,1.09956 0.0683,2.2023 0,3.30186 h -27.53295 z m 20.87611,-5.32549 c 0.20553,-1.42383 0.10348,-2.87512 -0.29933,-4.25613 -0.40275,-1.381 -1.09687,-2.65966 -2.03552,-3.74978 -0.93872,-1.09005 -2.10014,-1.96625 -3.40607,-2.56955 -1.30593,-0.60328 -2.72606,-0.91962 -4.16455,-0.9277 -2.92609,0.2118 -5.66753,1.50874 -7.68708,3.63669 -2.01956,2.12789 -3.17158,4.93332 -3.23026,7.86647 z m 17.32486,-3.26854 c 0,-4.57993 0,-8.52084 -0.31954,-12.1422 h 6.39066 v 7.61551 h 0.31949 c 0.67079,-2.35047 2.0567,-4.43376 3.96535,-5.96069 1.90866,-1.52694 4.24537,-2.42173 6.68574,-2.56016 0.67169,-0.0882 1.352,-0.0882 2.02369,0 v 6.65694 c -0.81388,-0.0943 -1.63589,-0.0943 -2.44977,0 -2.41746,0.0936 -4.71822,1.06409 -6.47249,2.73019 -1.75426,1.66603 -2.84204,3.91367 -3.0602,6.32318 -0.19913,1.0897 -0.30602,2.19422 -0.31948,3.3018 v 20.71634 h -7.02973 v -26.62768 z"
               fill="#4e4e4e"
               id="path27171" /><path
               d="m 233.25794,16.962136 c 0.2187,3.577741 -0.63251,7.139571 -2.44527,10.231775 -1.81277,3.092263 -4.50492,5.574867 -7.73362,7.131676 -3.22871,1.556749 -6.84773,2.117178 -10.39604,1.609927 -3.54831,-0.507312 -6.86531,-2.059336 -9.52845,-4.458434 -2.66314,-2.399039 -4.55186,-5.536584 -5.42555,-9.012875 -0.87369,-3.476292 -0.6928,-7.134009 0.51961,-10.507115 1.21242,-3.3731062 3.40149,-6.3090006 6.28833,-8.4336207 2.88685,-2.1246202 6.34083,-3.34181204 9.92186,-3.49651893 2.3479,-0.1291975 4.69819,0.20702204 6.91562,0.98932423 2.21749,0.7822986 4.25846,1.995253 6.00555,3.569098 1.74703,1.573851 3.16578,3.4775414 4.17454,5.6015994 1.00876,2.124058 1.58768,4.426611 1.70342,6.775164 z"
               fill="#767677"
               id="path27173" /><path
               d="m 127.95297,225.54098 c -47.929333,0 -90.054517,-17.20146 -111.835905,-42.60426 8.451248,22.85272 23.700571,42.56789 43.695392,56.49184 19.994641,13.92407 43.775663,21.38809 68.140513,21.38809 24.36544,0 48.14587,-7.46402 68.14105,-21.38809 19.99458,-13.92395 35.24384,-33.63912 43.69545,-56.49184 -21.72809,25.4028 -63.69362,42.60426 -111.8365,42.60426 z"
               fill="#f37726"
               id="path27175" /><path
               d="m 127.95297,60.354313 c 47.92993,0 90.05517,17.201466 111.8365,42.604087 C 231.33786,80.105856 216.0886,60.390682 196.09402,46.466735 176.09884,32.542787 152.31841,25.078467 127.95297,25.078467 c -24.36485,0 -48.145872,7.46432 -68.140513,21.388268 C 39.817636,60.390682 24.568313,80.105856 16.117065,102.9584 37.898453,77.502541 79.810687,60.354313 127.95297,60.354313 Z"
               fill="#f37726"
               id="path27177" /><path
               d="m 61.971687,274.9752 c 0.281142,4.50641 -0.785642,8.99451 -3.064388,12.89246 -2.278805,3.89794 -5.666387,7.02927 -9.731163,8.99505 -4.064775,1.96578 -8.622745,2.67701 -13.093143,2.04306 -4.470457,-0.634 -8.650979,-2.58441 -12.008951,-5.6028 -3.357978,-3.01839 -5.741375,-6.96814 -6.846544,-11.34593 -1.105164,-4.37786 -0.882062,-8.98554 0.640884,-13.23617 1.522946,-4.25057 4.276786,-7.95154 7.910637,-10.63139 3.63391,-2.67986 7.983297,-4.21728 12.494071,-4.41637 2.954922,-0.15806 5.912058,0.26763 8.702482,1.25274 2.790364,0.98511 5.359344,2.51034 7.560088,4.48855 2.200744,1.97823 3.990243,4.37063 5.266089,7.04064 1.275907,2.66996 2.013276,5.56518 2.169938,8.52016 z"
               fill="#9e9e9e"
               id="path27179" /><path
               d="m 21.564102,54.565061 c -2.582619,0.0713 -5.128689,-0.62258 -7.318008,-1.994374 C 12.0568,51.198834 10.321986,49.210262 9.2598372,46.855129 8.1976898,44.499937 7.8556297,41.883282 8.276674,39.334221 c 0.4210443,-2.54906 1.5863923,-4.916755 3.349494,-6.80524 1.763107,-1.888508 4.045257,-3.213549 6.559444,-3.808483 2.514127,-0.594933 5.148069,-0.433197 7.570616,0.464867 2.422487,0.89807 4.52537,2.492366 6.044135,4.5824 1.518825,2.090046 2.385759,4.582519 2.491756,7.163941 0.100912,3.490528 -1.179062,6.880024 -3.56207,9.432495 -2.383007,2.55253 -5.676736,4.062083 -9.165947,4.20086 z"
               fill="#616262"
               id="path27181" /></g></g><text
           xml:space="preserve"
           style="font-style:normal;font-weight:normal;font-size:6.74246px;line-height:1.25;font-family:sans-serif;fill:#a0892c;fill-opacity:1;stroke:#ff0000;stroke-width:0.168563"
           x="588.26349"
           y="215.27718"
           id="text33668"><tspan
             sodipodi:role="line"
             id="tspan33666"
             style="fill:#a0892c;fill-opacity:1;stroke:#ff0000;stroke-width:0.168563"
             x="588.26349"
             y="215.27718">Seurat</tspan></text></g></g><g
       id="g38803"
       transform="translate(-5.1631049,1.9492671)"><path
         style="fill:none;fill-opacity:1;stroke:#ff0000;stroke-width:0.750204;stroke-dasharray:none;marker-end:url(#Arrow3)"
         id="path27157"
         sodipodi:type="arc"
         sodipodi:cx="-123.36851"
         sodipodi:cy="-638.71185"
         sodipodi:rx="4.6892686"
         sodipodi:ry="4.6892686"
         sodipodi:start="0"
         sodipodi:end="5.2376381"
         sodipodi:arc-type="arc"
         d="m -118.67924,-638.71185 a 4.6892686,4.6892686 0 0 1 -3.47746,4.52998 4.6892686,4.6892686 0 0 1 -5.27477,-2.1887 4.6892686,4.6892686 0 0 1 0.75126,-5.6612 4.6892686,4.6892686 0 0 1 5.66304,-0.73723"
         transform="rotate(117.97992)"
         sodipodi:open="true" /><text
         xml:space="preserve"
         style="font-style:normal;font-weight:normal;font-size:5.19381px;line-height:1.25;font-family:sans-serif;fill:#ff0000;fill-opacity:1;stroke:none;stroke-width:0.129846"
         x="575.33295"
         y="186.87192"
         id="text27161"><tspan
           sodipodi:role="line"
           id="tspan27159"
           style="fill:#ff0000;stroke-width:0.129846"
           x="575.33295"
           y="186.87192">Execution (or not)</tspan></text></g><path
       style="fill:none;stroke:#000000;stroke-width:0.750204px;stroke-linecap:butt;stroke-linejoin:miter;stroke-opacity:1;marker-end:url(#TriangleStart)"
       d="m 704.5036,144.45727 c 20.84245,-16.06442 40.68974,-12.47622 60.08697,0"
       id="path27187"
       sodipodi:nodetypes="cc" /><g
       id="g38690"
       transform="translate(-12.003257)"><g
         transform="matrix(0.18096092,0,0,0.18096092,249.16361,-4.677821)"
         id="g36662"
         style="fill:#e9ddaf;stroke:#a0892c"><path
           style="fill:#e9ddaf;fill-opacity:1;stroke:#a0892c;stroke-width:15.0041;stroke-linecap:round;stroke-linejoin:round;stroke-miterlimit:4;stroke-dasharray:none;stroke-opacity:1"
           d="m 2940.2664,858.23293 v 345.09367 h 270.0733 V 940.75533 h -82.5224 v -82.5224 l 82.5224,82.5224 -82.5224,-82.5224 z"
           id="path36658"
           inkscape:connector-curvature="0" /><path
           style="opacity:1;fill:#e9ddaf;fill-opacity:1;stroke:#a0892c;stroke-width:4.75522;stroke-linecap:round;stroke-linejoin:round;stroke-miterlimit:4;stroke-dasharray:none;stroke-dashoffset:0"
           d="m 3130.1528,901.36761 v -37.48557 l 37.1882,37.17326 c 20.4535,20.44523 37.1882,37.31378 37.1882,37.48558 0,0.17172 -16.7347,0.31231 -37.1882,0.31231 h -37.1882 z"
           id="path36660"
           inkscape:connector-curvature="0" /></g><g
         transform="matrix(0.18096092,0,0,0.18096092,238.66076,7.325435)"
         id="g36690"
         style="fill:#e9ddaf;stroke:#a0892c"><path
           style="fill:#e9ddaf;fill-opacity:1;stroke:#a0892c;stroke-width:15.0041;stroke-linecap:round;stroke-linejoin:round;stroke-miterlimit:4;stroke-dasharray:none;stroke-opacity:1"
           d="m 2940.2664,858.23293 v 345.09367 h 270.0733 V 940.75533 h -82.5224 v -82.5224 l 82.5224,82.5224 -82.5224,-82.5224 z"
           id="path36686"
           inkscape:connector-curvature="0" /><path
           style="opacity:1;fill:#e9ddaf;fill-opacity:1;stroke:#a0892c;stroke-width:4.75522;stroke-linecap:round;stroke-linejoin:round;stroke-miterlimit:4;stroke-dasharray:none;stroke-dashoffset:0"
           d="m 3130.1528,901.36761 v -37.48557 l 37.1882,37.17326 c 20.4535,20.44523 37.1882,37.31378 37.1882,37.48558 0,0.17172 -16.7347,0.31231 -37.1882,0.31231 h -37.1882 z"
           id="path36688"
           inkscape:connector-curvature="0" /></g><g
         transform="matrix(0.18096092,0,0,0.18096092,228.15791,19.328691)"
         id="g36718"
         style="fill:#e9ddaf;stroke:#a0892c"><path
           style="fill:#e9ddaf;fill-opacity:1;stroke:#a0892c;stroke-width:15.0041;stroke-linecap:round;stroke-linejoin:round;stroke-miterlimit:4;stroke-dasharray:none;stroke-opacity:1"
           d="m 2940.2664,858.23293 v 345.09367 h 270.0733 V 940.75533 h -82.5224 v -82.5224 l 82.5224,82.5224 -82.5224,-82.5224 z"
           id="path36714"
           inkscape:connector-curvature="0" /><path
           style="opacity:1;fill:#e9ddaf;fill-opacity:1;stroke:#a0892c;stroke-width:4.75522;stroke-linecap:round;stroke-linejoin:round;stroke-miterlimit:4;stroke-dasharray:none;stroke-dashoffset:0"
           d="m 3130.1528,901.36761 v -37.48557 l 37.1882,37.17326 c 20.4535,20.44523 37.1882,37.31378 37.1882,37.48558 0,0.17172 -16.7347,0.31231 -37.1882,0.31231 h -37.1882 z"
           id="path36716"
           inkscape:connector-curvature="0" /></g><g
         transform="matrix(0.18096092,0,0,0.18096092,217.65508,31.331947)"
         id="g36746"
         style="fill:#e9ddaf;stroke:#a0892c"><path
           style="fill:#e9ddaf;fill-opacity:1;stroke:#a0892c;stroke-width:15.0041;stroke-linecap:round;stroke-linejoin:round;stroke-miterlimit:4;stroke-dasharray:none;stroke-opacity:1"
           d="m 2940.2664,858.23293 v 345.09367 h 270.0733 V 940.75533 h -82.5224 v -82.5224 l 82.5224,82.5224 -82.5224,-82.5224 z"
           id="path36742"
           inkscape:connector-curvature="0" /><path
           style="opacity:1;fill:#e9ddaf;fill-opacity:1;stroke:#a0892c;stroke-width:4.75522;stroke-linecap:round;stroke-linejoin:round;stroke-miterlimit:4;stroke-dasharray:none;stroke-dashoffset:0"
           d="m 3130.1528,901.36761 v -37.48557 l 37.1882,37.17326 c 20.4535,20.44523 37.1882,37.31378 37.1882,37.48558 0,0.17172 -16.7347,0.31231 -37.1882,0.31231 h -37.1882 z"
           id="path36744"
           inkscape:connector-curvature="0" /></g><g
         transform="matrix(0.18096092,0,0,0.18096092,207.15221,43.335204)"
         id="g36774"
         style="fill:#e9ddaf;stroke:#a0892c"><path
           style="fill:#e9ddaf;fill-opacity:1;stroke:#a0892c;stroke-width:15.0041;stroke-linecap:round;stroke-linejoin:round;stroke-miterlimit:4;stroke-dasharray:none;stroke-opacity:1"
           d="m 2940.2664,858.23293 v 345.09367 h 270.0733 V 940.75533 h -82.5224 v -82.5224 l 82.5224,82.5224 -82.5224,-82.5224 z"
           id="path36770"
           inkscape:connector-curvature="0" /><path
           style="opacity:1;fill:#e9ddaf;fill-opacity:1;stroke:#a0892c;stroke-width:4.75522;stroke-linecap:round;stroke-linejoin:round;stroke-miterlimit:4;stroke-dasharray:none;stroke-dashoffset:0"
           d="m 3130.1528,901.36761 v -37.48557 l 37.1882,37.17326 c 20.4535,20.44523 37.1882,37.31378 37.1882,37.48558 0,0.17172 -16.7347,0.31231 -37.1882,0.31231 h -37.1882 z"
           id="path36772"
           inkscape:connector-curvature="0" /></g><text
         xml:space="preserve"
         style="font-style:normal;font-weight:normal;font-size:6.74246px;line-height:1.25;font-family:sans-serif;fill:#a0892c;fill-opacity:1;stroke:#ff0000;stroke-width:0.168563"
         x="783.84143"
         y="158.17542"
         id="text36682"><tspan
           sodipodi:role="line"
           id="tspan36680"
           style="fill:#a0892c;fill-opacity:1;stroke:#ff0000;stroke-width:0.168563"
           x="783.84143"
           y="158.17542">SPARK-X</tspan></text><text
         xml:space="preserve"
         style="font-style:normal;font-weight:normal;font-size:6.74246px;line-height:1.25;font-family:sans-serif;fill:#a0892c;fill-opacity:1;stroke:#ff0000;stroke-width:0.168563"
         x="777.83978"
         y="170.17868"
         id="text36710"><tspan
           sodipodi:role="line"
           id="tspan36708"
           style="fill:#a0892c;fill-opacity:1;stroke:#ff0000;stroke-width:0.168563"
           x="777.83978"
           y="170.17868">DestVI</tspan></text><text
         xml:space="preserve"
         style="font-style:normal;font-weight:normal;font-size:6.74246px;line-height:1.25;font-family:sans-serif;fill:#a0892c;fill-opacity:1;stroke:#ff0000;stroke-width:0.168563"
         x="767.33691"
         y="182.18193"
         id="text36738"><tspan
           sodipodi:role="line"
           id="tspan36736"
           style="fill:#a0892c;fill-opacity:1;stroke:#ff0000;stroke-width:0.168563"
           x="767.33691"
           y="182.18193">RCTD</tspan></text><g
         id="g27169"
         transform="matrix(0.04405957,0,0,0.04405957,745.41445,223.96911)"><path
           d="M 361.453,485.937 C 162.329,485.937 0.906,377.828 0.906,244.469 0.906,111.109 162.329,3 361.453,3 560.578,3 722,111.109 722,244.469 722,377.828 560.578,485.937 361.453,485.937 Z M 416.641,97.406 c -151.352,0 -274.047,73.908 -274.047,165.078 0,91.17 122.695,165.078 274.047,165.078 151.351,0 263.046,-50.529 263.046,-165.078 0,-114.513 -111.695,-165.078 -263.046,-165.078 z"
           fill="url(#gradientFill-1)"
           fill-rule="evenodd"
           id="path27165"
           style="fill:url(#linearGradient28163)" /><path
           d="m 550,377 c 0,0 21.822,6.585 34.5,13 4.399,2.226 12.01,6.668 17.5,12.5 5.378,5.712 8,11.5 8,11.5 L 696,559 557,559.062 492,437 c 0,0 -13.31,-22.869 -21.5,-29.5 -6.832,-5.531 -9.745,-7.5 -16.5,-7.5 -4.702,0 -33.026,0 -33.026,0 L 421,558.974 298,559.026 V 152.938 h 247 c 0,0 112.5,2.029 112.5,109.062 0,107.033 -107.5,115 -107.5,115 z m -53.5,-135.976 -74.463,-0.048 -0.037,69.05 74.5,-0.024 c 0,0 34.5,-0.107 34.5,-35.125 0,-35.722 -34.5,-33.853 -34.5,-33.853 z"
           fill="url(#gradientFill-2)"
           fill-rule="evenodd"
           id="path27167"
           style="fill:url(#linearGradient28165)" /></g><text
         xml:space="preserve"
         style="font-style:normal;font-weight:normal;font-size:6.74246px;line-height:1.25;font-family:sans-serif;fill:#a0892c;fill-opacity:1;stroke:#ff0000;stroke-width:0.168563"
         x="755.33356"
         y="194.18518"
         id="text36766"><tspan
           sodipodi:role="line"
           id="tspan36764"
           style="fill:#a0892c;fill-opacity:1;stroke:#ff0000;stroke-width:0.168563"
           x="755.33356"
           y="194.18518">Scanpy</tspan></text><text
         xml:space="preserve"
         style="font-style:normal;font-weight:normal;font-size:6.74246px;line-height:1.25;font-family:sans-serif;fill:#a0892c;fill-opacity:1;stroke:#ff0000;stroke-width:0.168563"
         x="746.33105"
         y="206.18845"
         id="text36794"><tspan
           sodipodi:role="line"
           id="tspan36792"
           style="fill:#a0892c;fill-opacity:1;stroke:#ff0000;stroke-width:0.168563"
           x="746.33105"
           y="206.18845">Seurat</tspan></text></g><g
       id="g38636"
       transform="translate(-25.50692)"><g
         transform="matrix(0.18096092,0,0,0.18096092,369.19617,-4.677821)"
         id="g38007"
         style="fill:#b7c8be;fill-opacity:1;stroke:#536c5d"><path
           style="fill:#b7c8be;fill-opacity:1;stroke:#536c5d;stroke-width:15.0041;stroke-linecap:round;stroke-linejoin:round;stroke-miterlimit:4;stroke-dasharray:none;stroke-opacity:1"
           d="m 2940.2664,858.23293 v 345.09367 h 270.0733 V 940.75533 h -82.5224 v -82.5224 l 82.5224,82.5224 -82.5224,-82.5224 z"
           id="path38003"
           inkscape:connector-curvature="0" /><path
           style="opacity:1;fill:#b7c8be;fill-opacity:1;stroke:#536c5d;stroke-width:4.75522;stroke-linecap:round;stroke-linejoin:round;stroke-miterlimit:4;stroke-dasharray:none;stroke-dashoffset:0"
           d="m 3130.1528,901.36761 v -37.48557 l 37.1882,37.17326 c 20.4535,20.44523 37.1882,37.31378 37.1882,37.48558 0,0.17172 -16.7347,0.31231 -37.1882,0.31231 h -37.1882 z"
           id="path38005"
           inkscape:connector-curvature="0" /></g><g
         transform="matrix(0.18096092,0,0,0.18096092,358.69332,7.325435)"
         id="g38013"
         style="fill:#b7c8be;fill-opacity:1;stroke:#536c5d"><path
           style="fill:#b7c8be;fill-opacity:1;stroke:#536c5d;stroke-width:15.0041;stroke-linecap:round;stroke-linejoin:round;stroke-miterlimit:4;stroke-dasharray:none;stroke-opacity:1"
           d="m 2940.2664,858.23293 v 345.09367 h 270.0733 V 940.75533 h -82.5224 v -82.5224 l 82.5224,82.5224 -82.5224,-82.5224 z"
           id="path38009"
           inkscape:connector-curvature="0" /><path
           style="opacity:1;fill:#b7c8be;fill-opacity:1;stroke:#536c5d;stroke-width:4.75522;stroke-linecap:round;stroke-linejoin:round;stroke-miterlimit:4;stroke-dasharray:none;stroke-dashoffset:0"
           d="m 3130.1528,901.36761 v -37.48557 l 37.1882,37.17326 c 20.4535,20.44523 37.1882,37.31378 37.1882,37.48558 0,0.17172 -16.7347,0.31231 -37.1882,0.31231 h -37.1882 z"
           id="path38011"
           inkscape:connector-curvature="0" /></g><g
         transform="matrix(0.18096092,0,0,0.18096092,348.19047,19.328691)"
         id="g38019"
         style="fill:#b7c8be;fill-opacity:1;stroke:#536c5d"><path
           style="fill:#b7c8be;fill-opacity:1;stroke:#536c5d;stroke-width:15.0041;stroke-linecap:round;stroke-linejoin:round;stroke-miterlimit:4;stroke-dasharray:none;stroke-opacity:1"
           d="m 2940.2664,858.23293 v 345.09367 h 270.0733 V 940.75533 h -82.5224 v -82.5224 l 82.5224,82.5224 -82.5224,-82.5224 z"
           id="path38015"
           inkscape:connector-curvature="0" /><path
           style="opacity:1;fill:#b7c8be;fill-opacity:1;stroke:#536c5d;stroke-width:4.75522;stroke-linecap:round;stroke-linejoin:round;stroke-miterlimit:4;stroke-dasharray:none;stroke-dashoffset:0"
           d="m 3130.1528,901.36761 v -37.48557 l 37.1882,37.17326 c 20.4535,20.44523 37.1882,37.31378 37.1882,37.48558 0,0.17172 -16.7347,0.31231 -37.1882,0.31231 h -37.1882 z"
           id="path38017"
           inkscape:connector-curvature="0" /></g><g
         transform="matrix(0.18096092,0,0,0.18096092,337.68764,31.331947)"
         id="g38025"
         style="fill:#b7c8be;fill-opacity:1;stroke:#536c5d"><path
           style="fill:#b7c8be;fill-opacity:1;stroke:#536c5d;stroke-width:15.0041;stroke-linecap:round;stroke-linejoin:round;stroke-miterlimit:4;stroke-dasharray:none;stroke-opacity:1"
           d="m 2940.2664,858.23293 v 345.09367 h 270.0733 V 940.75533 h -82.5224 v -82.5224 l 82.5224,82.5224 -82.5224,-82.5224 z"
           id="path38021"
           inkscape:connector-curvature="0" /><path
           style="opacity:1;fill:#b7c8be;fill-opacity:1;stroke:#536c5d;stroke-width:4.75522;stroke-linecap:round;stroke-linejoin:round;stroke-miterlimit:4;stroke-dasharray:none;stroke-dashoffset:0"
           d="m 3130.1528,901.36761 v -37.48557 l 37.1882,37.17326 c 20.4535,20.44523 37.1882,37.31378 37.1882,37.48558 0,0.17172 -16.7347,0.31231 -37.1882,0.31231 h -37.1882 z"
           id="path38023"
           inkscape:connector-curvature="0" /></g><g
         transform="matrix(0.18096092,0,0,0.18096092,327.18477,43.335204)"
         id="g38031"
         style="fill:#b7c8be;fill-opacity:1;stroke:#536c5d"><path
           style="fill:#b7c8be;fill-opacity:1;stroke:#536c5d;stroke-width:15.0041;stroke-linecap:round;stroke-linejoin:round;stroke-miterlimit:4;stroke-dasharray:none;stroke-opacity:1"
           d="m 2940.2664,858.23293 v 345.09367 h 270.0733 V 940.75533 h -82.5224 v -82.5224 l 82.5224,82.5224 -82.5224,-82.5224 z"
           id="path38027"
           inkscape:connector-curvature="0" /><path
           style="opacity:1;fill:#b7c8be;fill-opacity:1;stroke:#536c5d;stroke-width:4.75522;stroke-linecap:round;stroke-linejoin:round;stroke-miterlimit:4;stroke-dasharray:none;stroke-dashoffset:0"
           d="m 3130.1528,901.36761 v -37.48557 l 37.1882,37.17326 c 20.4535,20.44523 37.1882,37.31378 37.1882,37.48558 0,0.17172 -16.7347,0.31231 -37.1882,0.31231 h -37.1882 z"
           id="path38029"
           inkscape:connector-curvature="0" /></g><text
         xml:space="preserve"
         style="font-style:normal;font-weight:normal;font-size:6.74246px;line-height:1.25;font-family:sans-serif;fill:#a0892c;fill-opacity:1;stroke:#ff0000;stroke-width:0.168563"
         x="903.87415"
         y="158.17542"
         id="text38035"><tspan
           sodipodi:role="line"
           id="tspan38033"
           style="fill:#a0892c;fill-opacity:1;stroke:#ff0000;stroke-width:0.168563"
           x="903.87415"
           y="158.17542">SPARK-X</tspan></text><text
         xml:space="preserve"
         style="font-style:normal;font-weight:normal;font-size:6.74246px;line-height:1.25;font-family:sans-serif;fill:#a0892c;fill-opacity:1;stroke:#ff0000;stroke-width:0.168563"
         x="897.8725"
         y="170.17868"
         id="text38039"><tspan
           sodipodi:role="line"
           id="tspan38037"
           style="fill:#a0892c;fill-opacity:1;stroke:#ff0000;stroke-width:0.168563"
           x="897.8725"
           y="170.17868">DestVI</tspan></text><text
         xml:space="preserve"
         style="font-style:normal;font-weight:normal;font-size:6.74246px;line-height:1.25;font-family:sans-serif;fill:#a0892c;fill-opacity:1;stroke:#ff0000;stroke-width:0.168563"
         x="887.36963"
         y="182.18193"
         id="text38043"><tspan
           sodipodi:role="line"
           id="tspan38041"
           style="fill:#a0892c;fill-opacity:1;stroke:#ff0000;stroke-width:0.168563"
           x="887.36963"
           y="182.18193">RCTD</tspan></text><text
         xml:space="preserve"
         style="font-style:normal;font-weight:normal;font-size:6.74246px;line-height:1.25;font-family:sans-serif;fill:#a0892c;fill-opacity:1;stroke:#ff0000;stroke-width:0.168563"
         x="875.36627"
         y="194.18518"
         id="text38053"><tspan
           sodipodi:role="line"
           id="tspan38051"
           style="fill:#a0892c;fill-opacity:1;stroke:#ff0000;stroke-width:0.168563"
           x="875.36627"
           y="194.18518">Scanpy</tspan></text><text
         xml:space="preserve"
         style="font-style:normal;font-weight:normal;font-size:6.74246px;line-height:1.25;font-family:sans-serif;fill:#a0892c;fill-opacity:1;stroke:#ff0000;stroke-width:0.168563"
         x="866.36377"
         y="206.18845"
         id="text38057"><tspan
           sodipodi:role="line"
           id="tspan38055"
           style="fill:#a0892c;fill-opacity:1;stroke:#ff0000;stroke-width:0.168563"
           x="866.36377"
           y="206.18845">Seurat</tspan></text><text
         xml:space="preserve"
         style="font-style:normal;font-weight:normal;font-size:13.4986px;line-height:1.25;font-family:sans-serif;letter-spacing:0px;word-spacing:0px;fill:#536c5d;fill-opacity:1;stroke:none;stroke-width:0.158186"
         x="864.48895"
         y="243.31487"
         id="text38559"><tspan
           sodipodi:role="line"
           id="tspan38557"
           x="864.48895"
           y="243.31487"
           style="fill:#536c5d;fill-opacity:1;stroke-width:0.158186">HTML</tspan></text></g><g
       id="g38835"
       transform="translate(6.8401528,-11.554398)"><path
         style="fill:none;fill-opacity:1;stroke:#ff0000;stroke-width:0.750204;stroke-dasharray:none;marker-end:url(#Arrow3)"
         id="path38829"
         sodipodi:type="arc"
         sodipodi:cx="-123.36851"
         sodipodi:cy="-638.71185"
         sodipodi:rx="4.6892686"
         sodipodi:ry="4.6892686"
         sodipodi:start="0"
         sodipodi:end="5.2376381"
         sodipodi:arc-type="arc"
         d="m -118.67924,-638.71185 a 4.6892686,4.6892686 0 0 1 -3.47746,4.52998 4.6892686,4.6892686 0 0 1 -5.27477,-2.1887 4.6892686,4.6892686 0 0 1 0.75126,-5.6612 4.6892686,4.6892686 0 0 1 5.66304,-0.73723"
         transform="rotate(117.97992)"
         sodipodi:open="true" /><text
         xml:space="preserve"
         style="font-style:normal;font-weight:normal;font-size:5.19381px;line-height:1.25;font-family:sans-serif;fill:#ff0000;fill-opacity:1;stroke:none;stroke-width:0.129846"
         x="575.33295"
         y="186.87192"
         id="text38833"><tspan
           sodipodi:role="line"
           id="tspan38831"
           style="fill:#ff0000;stroke-width:0.129846"
           x="575.33295"
           y="186.87192">Execution (or not)</tspan></text></g><g
       id="g38867"
       transform="translate(18.843409,-23.557654)"><path
         style="fill:none;fill-opacity:1;stroke:#ff0000;stroke-width:0.750204;stroke-dasharray:none;marker-end:url(#Arrow3)"
         id="path38861"
         sodipodi:type="arc"
         sodipodi:cx="-123.36851"
         sodipodi:cy="-638.71185"
         sodipodi:rx="4.6892686"
         sodipodi:ry="4.6892686"
         sodipodi:start="0"
         sodipodi:end="5.2376381"
         sodipodi:arc-type="arc"
         d="m -118.67924,-638.71185 a 4.6892686,4.6892686 0 0 1 -3.47746,4.52998 4.6892686,4.6892686 0 0 1 -5.27477,-2.1887 4.6892686,4.6892686 0 0 1 0.75126,-5.6612 4.6892686,4.6892686 0 0 1 5.66304,-0.73723"
         transform="rotate(117.97992)"
         sodipodi:open="true" /><text
         xml:space="preserve"
         style="font-style:normal;font-weight:normal;font-size:5.19381px;line-height:1.25;font-family:sans-serif;fill:#ff0000;fill-opacity:1;stroke:none;stroke-width:0.129846"
         x="575.33295"
         y="186.87192"
         id="text38865"><tspan
           sodipodi:role="line"
           id="tspan38863"
           style="fill:#ff0000;stroke-width:0.129846"
           x="575.33295"
           y="186.87192">Execution (or not)</tspan></text></g><g
       id="g38899"
       transform="translate(29.346258,-35.56091)"><path
         style="fill:none;fill-opacity:1;stroke:#ff0000;stroke-width:0.750204;stroke-dasharray:none;marker-end:url(#Arrow3)"
         id="path38893"
         sodipodi:type="arc"
         sodipodi:cx="-123.36851"
         sodipodi:cy="-638.71185"
         sodipodi:rx="4.6892686"
         sodipodi:ry="4.6892686"
         sodipodi:start="0"
         sodipodi:end="5.2376381"
         sodipodi:arc-type="arc"
         d="m -118.67924,-638.71185 a 4.6892686,4.6892686 0 0 1 -3.47746,4.52998 4.6892686,4.6892686 0 0 1 -5.27477,-2.1887 4.6892686,4.6892686 0 0 1 0.75126,-5.6612 4.6892686,4.6892686 0 0 1 5.66304,-0.73723"
         transform="rotate(117.97992)"
         sodipodi:open="true" /><text
         xml:space="preserve"
         style="font-style:normal;font-weight:normal;font-size:5.19381px;line-height:1.25;font-family:sans-serif;fill:#ff0000;fill-opacity:1;stroke:none;stroke-width:0.129846"
         x="575.33295"
         y="186.87192"
         id="text38897"><tspan
           sodipodi:role="line"
           id="tspan38895"
           style="fill:#ff0000;stroke-width:0.129846"
           x="575.33295"
           y="186.87192">Execution (or not)</tspan></text></g><g
       id="g38931"
       transform="translate(38.3487,-47.564166)"><path
         style="fill:none;fill-opacity:1;stroke:#ff0000;stroke-width:0.750204;stroke-dasharray:none;marker-end:url(#Arrow3)"
         id="path38925"
         sodipodi:type="arc"
         sodipodi:cx="-123.36851"
         sodipodi:cy="-638.71185"
         sodipodi:rx="4.6892686"
         sodipodi:ry="4.6892686"
         sodipodi:start="0"
         sodipodi:end="5.2376381"
         sodipodi:arc-type="arc"
         d="m -118.67924,-638.71185 a 4.6892686,4.6892686 0 0 1 -3.47746,4.52998 4.6892686,4.6892686 0 0 1 -5.27477,-2.1887 4.6892686,4.6892686 0 0 1 0.75126,-5.6612 4.6892686,4.6892686 0 0 1 5.66304,-0.73723"
         transform="rotate(117.97992)"
         sodipodi:open="true" /><text
         xml:space="preserve"
         style="font-style:normal;font-weight:normal;font-size:5.19381px;line-height:1.25;font-family:sans-serif;fill:#ff0000;fill-opacity:1;stroke:none;stroke-width:0.129846"
         x="575.33295"
         y="186.87192"
         id="text38929"><tspan
           sodipodi:role="line"
           id="tspan38927"
           style="fill:#ff0000;stroke-width:0.129846"
           x="575.33295"
           y="186.87192">Execution (or not)</tspan></text></g><path
       style="fill:none;stroke:#000000;stroke-width:0.750204px;stroke-linecap:butt;stroke-linejoin:miter;stroke-opacity:1;marker-end:url(#TriangleStart)"
       d="m 666.38752,267.06527 c 20.84245,16.06442 172.07635,12.57933 191.47358,0.10311"
       id="path40484"
       sodipodi:nodetypes="cc" /></g><g
     id="g41080"
     transform="translate(110.44901,162.01217)"><path
       sodipodi:type="star"
       style="opacity:1;fill:#000000;fill-opacity:1;stroke:#000000;stroke-width:7.50204;stroke-dasharray:none"
       id="path40922"
       inkscape:flatsided="false"
       sodipodi:sides="3"
       sodipodi:cx="625.27875"
       sodipodi:cy="83.695457"
       sodipodi:r1="41.999866"
       sodipodi:r2="20.999933"
       sodipodi:arg1="0.96580973"
       sodipodi:arg2="2.0130073"
       inkscape:rounded="0"
       inkscape:randomized="0"
       d="m 649.16622,118.24076 -32.87416,-15.5654 -32.87415,-15.565397 29.9171,-20.687155 29.91711,-20.687154 2.95705,36.252551 z"
       transform="matrix(0.21160096,-0.30667862,0.30667862,0.21160096,297.38695,232.26695)"
       inkscape:transform-center-x="-5.2532363"
       inkscape:transform-center-y="-3.2671436" /><path
       style="fill:none;stroke:#000000;stroke-width:15.0041;stroke-linecap:butt;stroke-linejoin:miter;stroke-dasharray:none;stroke-opacity:1"
       d="m 362.64715,58.226766 h 86.74372"
       id="path41052" /></g><g
     id="g41110"
     transform="translate(545.56704,162.01217)"><path
       sodipodi:type="star"
       style="opacity:1;fill:#000000;fill-opacity:1;stroke:#000000;stroke-width:7.50204;stroke-dasharray:none"
       id="path41106"
       inkscape:flatsided="false"
       sodipodi:sides="3"
       sodipodi:cx="625.27875"
       sodipodi:cy="83.695457"
       sodipodi:r1="41.999866"
       sodipodi:r2="20.999933"
       sodipodi:arg1="0.96580973"
       sodipodi:arg2="2.0130073"
       inkscape:rounded="0"
       inkscape:randomized="0"
       d="m 649.16622,118.24076 -32.87416,-15.5654 -32.87415,-15.565397 29.9171,-20.687155 29.91711,-20.687154 2.95705,36.252551 z"
       transform="matrix(0.21160096,-0.30667862,0.30667862,0.21160096,297.38695,232.26695)"
       inkscape:transform-center-x="-5.2532363"
       inkscape:transform-center-y="-3.2671436" /><path
       style="fill:none;stroke:#000000;stroke-width:15.0041;stroke-linecap:butt;stroke-linejoin:miter;stroke-dasharray:none;stroke-opacity:1"
       d="m 362.64715,58.226766 h 86.74372"
       id="path41108" /></g></svg>
